<?xml version="1.0" encoding="utf-8"?>
<!-- Generator: Adobe Illustrator 24.1.0, SVG Export Plug-In . SVG Version: 6.00 Build 0)  -->
<svg version="1.1" id="Layer_1" xmlns="http://www.w3.org/2000/svg" xmlns:xlink="http://www.w3.org/1999/xlink" x="0px" y="0px"
	 viewBox="0 0 244.2 244.2" style="enable-background:new 0 0 244.2 244.2;" xml:space="preserve">
<style type="text/css">
	.st0{fill:#FFFFFF;}
	.st1{fill:#D3D3D3;}
</style>
<g id="Layer_2_1_">
	<g id="Layer_1-2">
		<path class="st0" d="M244.2,100.6c0-25,0-50,0-75c0-16.3-9.3-25.6-25.8-25.6H70C53.7,0,44.4,9.1,44.4,25.3c0,49.8,0,99.6,0,149.4
			c0,16.1,9,25,25.2,25c49.8,0,99.6,0,149.4,0c16,0,25.1-9.3,25.1-25.2C244.2,149.9,244.2,125.3,244.2,100.6z M199.5,221.5H22.6
			V44.8H0v5.4c0,56.1,0,112.3,0,168.4c0,16.1,9.4,25.5,25.4,25.5h174.1V221.5z"/>
		<path class="st1" d="M244.2,100.6c0,24.7,0,49.3,0,74c0,15.9-9.2,25.2-25.1,25.2c-49.8,0.1-99.6,0.1-149.4,0
			c-16.2,0-25.2-9-25.2-25c0-49.8,0-99.6,0-149.4C44.4,9.1,53.7,0,70,0h148.4c16.4,0,25.8,9.3,25.8,25.6
			C244.2,50.6,244.2,75.6,244.2,100.6z M221.3,23h-154v153.8h154V23z"/>
		<path class="st1" d="M199.5,221.5v22.7H25.4c-16,0-25.4-9.4-25.4-25.5c0-56.1,0-112.3,0-168.4v-5.4h22.6v176.7H199.5z"/>
		<path class="st1" d="M144.2,66.8h-22V44.7H166V155h-21.8V66.8z"/>
	</g>
</g>
</svg>
