<?xml version="1.0" encoding="utf-8"?>
<!-- Generator: Adobe Illustrator 24.1.0, SVG Export Plug-In . SVG Version: 6.00 Build 0)  -->
<svg version="1.1" id="Layer_1" xmlns="http://www.w3.org/2000/svg" xmlns:xlink="http://www.w3.org/1999/xlink" x="0px" y="0px"
	 viewBox="0 0 244.2 244.2" style="enable-background:new 0 0 244.2 244.2;" xml:space="preserve">
<style type="text/css">
	.st0{fill:#D3D3D3;}
</style>
<g id="Layer_2_1_">
	<g id="Layer_1-2">
		<path class="st0" d="M44.4,100.1c0-24.7,0-49.3,0-74C44.4,8.9,53.4,0,70.6,0h147.9c16.4,0,25.6,9.3,25.6,25.8c0,49.5,0,99,0,148.4
			c0,16.3-9.1,25.5-25.3,25.5c-49.8,0.1-99.6,0.1-149.4,0c-16.1,0-25-9-25-25.2C44.4,149.8,44.4,124.9,44.4,100.1z M67.4,22.9v154
			h153.8v-154H67.4z"/>
		<path class="st0" d="M0,44.7h22.5v176.7h176.9v22.8H25.8C9.4,244.2,0,234.9,0,218.6V44.7z"/>
		<path class="st0" d="M133.4,111.2v21.7h43.7V155h-65.4c-0.1-0.1-0.6-0.4-0.6-0.6c-0.1-15.3-0.5-30.7,0-45.9
			c0.4-10.8,10-19.2,21.1-19.5c7.3-0.2,14.6,0,22.4,0V67.2h-43.3V44.8c1.4-0.1,2.7-0.3,4-0.3c12.8,0,25.6-0.2,38.5,0
			c14.7,0.2,23.5,9.2,23.7,23.9c0.1,6.8,0.1,13.7,0,20.5c-0.3,13.1-9.5,22.1-22.6,22.3C147.9,111.2,140.9,111.2,133.4,111.2z"/>
	</g>
</g>
</svg>
