<?xml version="1.0" encoding="utf-8"?>
<!-- Generator: Adobe Illustrator 24.1.0, SVG Export Plug-In . SVG Version: 6.00 Build 0)  -->
<svg version="1.1" id="Layer_1" xmlns="http://www.w3.org/2000/svg" xmlns:xlink="http://www.w3.org/1999/xlink" x="0px" y="0px"
	 viewBox="0 0 383.3 383.3" style="enable-background:new 0 0 383.3 383.3;" xml:space="preserve">
<style type="text/css">
	.st0{fill:#D3D3D3;}
</style>
<g id="Layer_2_1_">
	<g id="Layer_1-2">
		<path class="st0" d="M383.3,367.5c-2.4,7.8-6.9,13.5-15.3,15.2c-1.8,0.3-3.7,0.5-5.6,0.5c-24.4,0-48.9,0-73.3,0
			c-12.8,0-20.8-7.9-20.8-20.7c-0.1-11.9-0.1-23.7,0-35.5c0.2-18.4,12.8-32.1,30.3-33c2-0.1,3.9,0.3,5.7,1.1
			c14.3,6.2,28.4,6.1,42.8,0.2c3.5-1.2,7.3-1.4,10.8-0.5c13.1,2.9,21.2,11.3,24.5,24.4c0.2,0.7,0.5,1.3,0.7,2L383.3,367.5z
			 M325.6,370.5c12.5,0,24.9,0,37.4,0c4.8,0,7.5-2.4,7.5-6.9c0.1-12.9,0.2-25.7,0-38.5c-0.1-8-5.4-15-13.1-17.3
			c-2.5-0.7-5.1-0.6-7.5,0.2c-15.6,6.2-33,6.1-48.5-0.1c-2.1-0.7-4.3-0.9-6.4-0.3c-8.6,2.3-13.7,9.4-13.9,19c-0.1,12-0.1,24,0,35.9
			c0,5.9,2.3,8,8.2,8.1C301.4,370.5,313.5,370.5,325.6,370.5L325.6,370.5z"/>
		<path class="st0" d="M196.9,0c1.4,0.4,2.8,0.9,4.2,1.2c18.8,4.9,31,22.8,28.6,41.7c-2.6,21-21.7,36-42.7,33.4s-36-21.7-33.4-42.7
			c2-16.4,14.2-29.6,30.4-32.9c0.8-0.2,1.6-0.5,2.4-0.8H196.9z M191.7,63.8c14.1,0,25.5-11.5,25.5-25.6s-11.5-25.5-25.6-25.5
			s-25.5,11.5-25.5,25.6c0,0.1,0,0.1,0,0.2c0,14,11.3,25.3,25.3,25.3C191.6,63.8,191.7,63.8,191.7,63.8L191.7,63.8z"/>
		<path class="st0" d="M57.5,383.2c-12.3,0-24.7,0-37,0s-20.4-8.1-20.4-20.4s-0.1-25,0-37.4c0.1-16.9,13.5-30.8,30.4-31.4
			c2.1,0,4.2,0.4,6.1,1.3c13.4,5.7,26.9,6.3,40.3,0.5c5.5-2.4,10.6-2.1,15.9-0.4c13.4,4.3,22,16,22.2,30.9c0.2,12.3,0.2,24.7,0,37
			c-0.2,12.1-8.3,19.9-20.5,19.9S69.8,383.2,57.5,383.2z M57.3,370.5c12.5,0,24.9,0,37.4,0c4.7,0,7.4-2.1,7.5-6.5
			c0.1-13.3,0.2-26.7-0.2-40c-0.2-7.2-4.4-12.3-10.8-15.5c-3.2-1.7-7-1.9-10.3-0.4c-14.8,6.1-31.5,6.2-46.3,0.1
			c-4.8-1.9-8.7-1.1-12.7,1.3c-6.1,3.8-9.1,9.5-9.1,16.6c-0.1,12.1,0,24.2,0,36.3c0,5.9,2.3,8.1,8.2,8.1
			C33.1,370.5,45.2,370.5,57.3,370.5z"/>
		<path class="st0" d="M191.7,172.4c-12.3,0-24.7,0-37,0c-12.6-0.1-20.5-7.9-20.6-20.6c0-12.2-0.1-24.4,0-36.6
			c0.2-17.7,14-31.8,30.9-32.1c1.6,0,3.2,0.3,4.6,1c14.6,6.6,29,6.4,43.8,0.2c3.4-1.4,8.1-0.9,11.9,0c13.7,3.4,23.4,15.5,23.6,29.6
			c0.4,13.2,0.3,26.4,0,39.6c-0.2,10.8-8.3,18.6-19.3,18.8C217.2,172.5,204.4,172.4,191.7,172.4z M191.4,159.6c12.5,0,25,0,37.4,0
			c5.1,0,7.6-2.3,7.6-7.1c0.1-12.6,0.2-25.2,0-37.8c-0.2-7.7-4-13.5-11-17c-3.2-1.7-7-1.9-10.3-0.5c-15.3,6.1-30.9,6.3-46.3,0.2
			c-4.8-1.9-8.7-1.2-12.7,1.3c-6.2,3.9-9.2,9.7-9.2,16.9c-0.1,12,0,23.9,0,35.9c0,5.9,2.2,8.1,8.2,8.1
			C167.2,159.6,179.3,159.6,191.4,159.6L191.4,159.6z"/>
		<path class="st0" d="M119,56.5c-4.4-2-8.2-3.7-12.1-5.6c-4-1.9-5.4-5.4-3.8-8.8s5.1-4.5,8.9-2.8c8.1,3.6,16.1,7.2,24.1,11
			c4.3,2,5.4,5.2,3.4,9.6c-4,8.6-8.1,17.1-12.3,25.6c-1.8,3.6-5.5,4.9-8.8,3.2s-4.2-5-2.6-8.7c1.2-2.7,2.5-5.4,4.2-9
			c-1.8,1-2.9,1.5-3.9,2.2c-41.2,27.5-62.7,66-65,115.4c0,0.6,0,1.2,0,1.9c-0.2,4.8-2.5,7.6-6.4,7.5s-6.4-3-6.3-7.7
			c0.5-29.9,8.7-57.5,25-82.5c13.3-20.5,31.4-37.4,52.7-49.4C116.9,57.9,117.7,57.3,119,56.5z"/>
		<path class="st0" d="M331,174.1c-1.9-15.4-6.3-30.4-13.2-44.3c-15.1-30.3-38-52.4-68.8-66.4c-0.9-0.4-1.9-0.8-2.7-1.3
			c-3.2-1.8-4.4-5.2-2.9-8.3c1.3-3.1,4.9-4.6,8.1-3.2c0,0,0.1,0,0.1,0.1c5.4,2.3,10.6,4.9,15.7,7.8c44,26.1,69.5,64.5,76.4,115.2
			c0.1,0.8,0.3,1.7,0.5,2.5l1.1,0.9c2.3-2.7,4.5-5.5,7-8.1c3.3-3.4,7.1-3.7,9.8-0.9s2.5,6.6-0.8,9.9c-5.8,5.9-11.6,11.7-17.5,17.5
			c-3.6,3.6-7,3.6-10.7-0.1c-5.9-5.8-11.7-11.6-17.5-17.5c-3.3-3.3-3.5-6.8-0.9-9.6s6.5-2.7,9.9,0.6c1.8,1.7,3.6,3.5,5.4,5.2
			C330.2,174,330.3,174,331,174.1z"/>
		<path class="st0" d="M19.3,249c0.1-21.1,17.3-38.2,38.5-38.1s38.2,17.3,38.1,38.5c-0.1,21.1-17.3,38.2-38.5,38.1
			c-21,0-38.1-17-38.1-38C19.3,249.3,19.3,249.1,19.3,249z M32.1,249.1c0,14.1,11.4,25.5,25.5,25.6s25.5-11.4,25.6-25.5
			c0-14.1-11.4-25.5-25.5-25.6c-0.1,0-0.1,0-0.2,0C43.4,223.7,32.1,235.1,32.1,249.1L32.1,249.1z"/>
		<path class="st0" d="M325.9,210.9c21.1,0,38.2,17.2,38.2,38.4s-17.2,38.2-38.4,38.2c-21.1,0-38.2-17.2-38.2-38.4c0,0,0,0,0,0
			c-0.1-21,17-38.1,38-38.2C325.6,210.9,325.7,210.9,325.9,210.9z M351.3,249c-0.4-14.1-12.1-25.2-26.2-24.8
			c-13.5,0.4-24.4,11.3-24.8,24.8c-0.4,14.1,10.7,25.8,24.8,26.2s25.8-10.7,26.2-24.8C351.3,250,351.3,249.5,351.3,249z"/>
		<path class="st0" d="M157.1,327c28.5,7.8,58.8,6.1,86.3-4.7c1.2-0.5,2.3-0.9,3.5-1.3c3.5-1.1,6.8,0.3,8.1,3.4
			c1.4,3.1,0,6.8-3.1,8.2c-0.1,0.1-0.3,0.1-0.4,0.2c-6.6,2.7-13.3,5-20.1,6.9c-26.2,7.1-53.9,7.1-80.1-0.1c-0.9-0.2-1.9-0.4-3.5-0.7
			c1.7,3.3,3.1,6,4.4,8.7c1.9,4,1,7.6-2.3,9.3s-6.9,0.5-9-3.4c-4-7.5-7.9-15-11.8-22.5c-2.7-5.3-1.1-8.9,4.5-10.6
			c7.8-2.3,15.5-4.6,23.3-6.8c4.5-1.3,7.8,0.4,8.9,4.2c1,3.6-1,6.5-5.4,8C159.4,326.2,158.2,326.6,157.1,327z"/>
	</g>
</g>
</svg>
