<?xml version="1.0" encoding="utf-8"?>
<!-- Generator: Adobe Illustrator 24.1.0, SVG Export Plug-In . SVG Version: 6.00 Build 0)  -->
<svg version="1.1" id="Layer_1" xmlns="http://www.w3.org/2000/svg" xmlns:xlink="http://www.w3.org/1999/xlink" x="0px" y="0px"
	 viewBox="0 0 371.4 371.5" style="enable-background:new 0 0 371.4 371.5;" xml:space="preserve">
<style type="text/css">
	.st0{fill:#D3D3D3;}
</style>
<g id="Layer_2_1_">
	<g id="Layer_1-2">
		<path class="st0" d="M289.1,196c-0.7-3.4-2.5-4.3-5.7-4.3c-19.8,0.1-39.7,0.1-59.5,0.1c-6.4,0-8.2,1.9-8.2,8.2
			c0,27.6,0,55.2,0,82.7c-0.1,2.2,0.8,4.3,2.6,5.7c15.1,13.8,19.7,35.8,11.3,54.5c-8.3,18.6-27.3,30-47.6,28.4
			c-23.6-1.9-42.8-21.5-44-44.9c-1.4-24.2,15.5-45.6,39.3-50l2.3-0.4V95.7l-11.8-3v4.1c0,46.6-0.3,93.1,0.1,139.6
			c0.1,14.2-9.8,22.5-21.2,21.2c-0.8-0.1-1.7,0-2.8,0v11.7H0.3c-0.1-0.8-0.2-1.6-0.2-2.4c0-10.5-0.1-21,0-31.4
			c-0.1-14.3,10-26.6,24-29.5c6.2-1.3,12.5-2.5,18.7-3.8c1.7-0.3,3.4-0.8,5-1.5c4.5-2.3,4.3-3.6,1.7-7.7c-3.1-4.8-6.7-7.3-12.6-8.3
			c-8.9-1.6-14-11.4-12.4-20.3c0.2-1.8-0.1-3.6-1-5.1c-6.6-11.1-7.4-22.5-1.3-33.8s16.2-17.3,29.3-17.6c8.1-0.2,16.2,0.1,24.3,0
			c1.3,0,2.6-0.4,3.8-1.1c13.9-8.4,30.4-5.8,39.9,6.5c9.7,12.4,8.3,28.7-3.3,40.3c-0.4,0.4-0.8,0.9-1.3,1.4
			c4.2,5.1,6.1,10.6,4.4,17.1c-1.9,7.7-8.6,13.1-16.5,13.4c-2.6,0.1-3.9,1-5.1,3.2c-1.5,2.7-3.7,5-5.7,7.6c1.8,3.4,4.9,5,8.6,5.7
			c6.3,1.3,12.7,2.5,19,3.8c14.4,3,24.1,14.9,24.2,29.6c0,3.2,0,6.4,0,10.1c2.2,0,4.2,0.1,6.1,0c3.5-0.3,5.4-2.3,5.8-5.7
			c0.1-1.1,0.1-2.2,0.1-3.4c0-49.1,0-98.1,0-147.1c0.2-2.5-0.8-4.8-2.6-6.5c-16.3-15.1-20.1-39.5-9.3-58.2
			C155.2,4.9,177.8-4.4,199.2,2c21.5,6.3,35.8,26.8,34.2,49.1c-1.4,21.2-16.8,40.4-41.5,44.4v180.3l11.7,3v-78.4
			c0-13.6,7-20.6,20.4-20.6H280c-3.4-5.9-6.7-11.1-9.6-16.6c-9.5-17.8-9.5-35.7,0.6-53.2c12.4-21.4,38.3-31.1,62.6-23.8
			c28.1,8.5,44,38.2,35.5,66.4c-1.3,4.3-3.1,8.3-5.4,12.1c-5.4,9.1-10.7,18.3-16,27.4c-0.7,1.2-1.3,2.4-2,3.8
			c7.6,2.8,14.8,6.1,20.1,12.2c7.4,8.3,7.6,18.8,0.1,27.1c-2.3,2.5-4.8,4.7-7.7,6.5c-9.9,6.4-21.1,8.8-32.6,9.7
			c-15.8,1.2-31.2-0.3-45.5-7.8c-4.4-2.4-8.3-5.5-11.6-9.1c-6.8-7.4-6.5-17.4-0.2-25.3c4.3-5.3,10-8.6,16.1-11.2
			C285.9,197.2,287.4,196.6,289.1,196z M49.5,213c-8.1,1.7-16.3,3.1-24.4,5.1c-6.5,1.6-11.6,6.1-12.3,12.7
			c-0.9,8.8-0.2,17.8-0.2,26.6h119.1c0-8,0.2-15.7-0.1-23.4c-0.4-7.6-5.7-14.1-13.1-16c-8.1-1.9-16.3-3.4-24.4-5.1
			C84.7,232.2,59.7,232.9,49.5,213z M317.5,95.9c-32.4,0-52.3,33.7-36.3,61.9c10.3,18.2,21,36.2,31.6,54.3c2.8,4.7,6.5,4.7,9.3,0
			c10.5-18.1,21.2-36.1,31.6-54.3C369.7,129.6,349.9,95.9,317.5,95.9L317.5,95.9z M185.6,287.6c-19.8,0-35.9,16.2-35.9,36
			s16.2,35.9,36,35.9c19.8,0,35.9-16.2,35.9-36c0,0,0,0,0-0.1C221.5,303.6,205.4,287.6,185.6,287.6z M185.8,12
			c-19.8,0-36,16-36,35.9c0,19.8,16,36,35.9,36c19.8,0,36-16,36-35.9c0,0,0,0,0,0C221.6,28.2,205.6,12.1,185.8,12z M68,119.9
			c-6.3,0-12.5-0.4-18.7,0.1c-8,0.7-14,5-17.3,12.4c-3,6.1-2.6,13.3,1,19c3.8-0.6,7.1-1,10.3-1.7c2-0.3,3.9-1,5.6-2
			c4.2-2.7,8.7-5.5,13.5-3.2c11.1,5.3,22.8,5.8,34.7,5.2c7.3-0.4,12.6-4.4,15.4-11.2s1.5-13.1-3.3-18.5s-11.1-7.5-18.3-5.4
			c-8.4,2.4-12.4,8.6-13.3,17H65.6L68,119.9z M339.6,205.9c-2.8,4.7-5,8.6-7.3,12.4c-7.5,12.6-22.3,12.5-29.8-0.1
			c-2.3-3.8-4.5-7.7-6.8-11.6c-6.3,1.9-12.1,4.2-16.7,8.5c-4.5,4.2-4.8,8.9-0.1,12.9c3.6,3,7.7,5.4,12.1,7.1
			c13.1,5,26.7,5.6,40.5,3.4c8.2-1.3,16.1-3.6,22.8-8.7s6.9-11.2-0.2-16.1C349.8,210.7,344.7,208.6,339.6,205.9L339.6,205.9z
			 M89.8,162.6c-0.3-0.3-0.4-0.6-0.6-0.6c-1.2-0.1-2.5-0.1-3.7-0.1c-8.1,0-16.2-1.6-23.7-4.6c-4.8-1.9-7.7-0.1-7.8,5.1
			c-0.1,4-0.1,8,0,12c0.3,9.9,8.6,17.7,18.5,17.4c9.4-0.3,17-7.8,17.4-17.3C90,170.4,89.8,166.4,89.8,162.6z M71.8,215.7
			c4.8,0,9.6-3,10.9-7.5c0.3-1.6,0-3.2-0.9-4.6c-0.4-0.7-2.2-0.7-3.4-0.7c-4.4-0.1-8.8-0.1-13.3,0c-1.2,0-3,0-3.4,0.7
			c-0.9,1.3-1.3,3-1,4.6C62.3,212.6,67.1,215.7,71.8,215.7L71.8,215.7z M41.8,161.7c-3.7,0.7-5.8,2.7-5.7,6.1s2,5.4,5.7,5.8V161.7z
			 M102,173.5c3.9-0.7,6.1-2.8,5.8-6c-0.3-3.4-2.2-5.3-5.8-5.7V173.5z"/>
		<path class="st0" d="M24.1,293.3v-11.5h83.5v11.5H24.1z"/>
		<path class="st0" d="M107.7,305.8v11.5H24.3v-11.5H107.7z"/>
		<path class="st0" d="M24.2,329.7h11.5v11.5H24.2V329.7z"/>
		<path class="st0" d="M48.2,329.6h11.4v11.6H48.2V329.6z"/>
		<path class="st0" d="M72.2,329.7h11.5v11.6H72.2V329.7z"/>
		<path class="st0" d="M107.7,329.8v11.5H96.1v-11.5H107.7z"/>
		<path class="st0" d="M347.4,138c-0.1,16.5-13.6,29.8-30.1,29.7c-16.5-0.1-29.8-13.6-29.7-30.1c0.1-16.5,13.6-29.8,30-29.7
			C334.1,107.9,347.5,121.4,347.4,138z M317.6,155.8c9.9,0,18-8.1,17.9-18.1c0-9.9-8.1-18-18.1-17.9c-9.9,0-17.9,8.1-17.9,18
			C299.5,147.7,307.6,155.8,317.6,155.8L317.6,155.8L317.6,155.8z"/>
		<path class="st0" d="M173.7,349l-15.6-15.6l8.4-8l6.2,8.2l32.2-32.6l8.3,8.7L173.7,349z"/>
		<path class="st0" d="M173.1,74c-4.5-4.6-9.2-9.3-13.9-14.1c-0.5-0.5-0.9-1.1-1.5-1.8l8.7-8.3l6.4,8.4l32.1-32.8l8.1,8.9L173.1,74z
			"/>
	</g>
</g>
</svg>
