<?xml version="1.0" encoding="utf-8"?>
<!-- Generator: Adobe Illustrator 24.1.0, SVG Export Plug-In . SVG Version: 6.00 Build 0)  -->
<svg version="1.1" id="Layer_1" xmlns="http://www.w3.org/2000/svg" xmlns:xlink="http://www.w3.org/1999/xlink" x="0px" y="0px"
	 viewBox="0 0 383.3 307.3" style="enable-background:new 0 0 383.3 307.3;" xml:space="preserve">
<style type="text/css">
	.st0{fill:#D3D3D3;}
</style>
<g id="Layer_2_1_">
	<g id="Layer_1-2">
		<path class="st0" d="M383.3,241.2c-1.6,3.2-2.7,6.7-4.8,9.6c-4.3,5.8-10.5,8.2-17.6,8.3c-1.6,0-3.2,0-5.3,0v4.2
			c0,10.1,0,20.2,0,30.3c0,5.2,0.2,10.5-5.8,12.9c-5.8,2.4-9.3-1.4-12.9-5c-13-13.1-26.1-26.1-39.1-39.2c-2-2.2-4.8-3.4-7.8-3.3
			c-35.2,0.1-70.4,0.1-105.5,0.1c-15.7,0-24.3-8.7-24.3-24.3c0-33.6,0-67.1,0-100.7c0-14.5,8.7-23.5,23.2-23.5
			c58.9-0.1,117.8-0.1,176.6,0c12.3,0,19.7,6.3,23.3,17.6L383.3,241.2z M337.5,276.2c0-9.1,0-17.3,0-25.5c0-6.2,3.2-9.5,9.3-9.8
			c4.1-0.2,8.2,0,12.3-0.1c5.3,0,6.1-0.8,6.1-6.1v-99.9c0-5.6-0.6-6.2-6.2-6.2H184.7c-6,0-6.4,0.5-6.4,6.3v98.8
			c0,6.6,0.4,7.1,6.9,7.1c36.7,0,73.3,0,110-0.1c4.4-0.2,8.6,1.6,11.6,4.8c9,9.3,18.3,18.4,27.5,27.6
			C335,274.1,336,274.8,337.5,276.2L337.5,276.2z"/>
		<path class="st0" d="M58,233.2c0.6-1.2,1-2.7,1.9-3.6c15.2-15.3,30.5-30.5,45.7-45.9c3-3.1,6.3-4.6,10.6-4.4s8.7,0,13.1,0.1
			c6,0.1,9.9,3.7,10,8.9c0.1,5.5-3.8,9.7-10,9c-8.9-1-14.7,2.6-20.6,8.8C91.1,224.3,73,242,55,259.8c-1.7,1.8-3.8,3.1-6.2,3.8
			c-5.9,1.3-10.5-3.2-10.6-9.9c0-17.2,0-34.4,0-51.7v-4.7c-5.5,0-10.8,0.1-16.2,0c-11.3-0.2-19.7-7.1-21.7-17.9
			C0.1,177.8,0,176,0,174.3C0,123.9,0,73.5,0,23C0,9.1,8.9,0,22.9,0c84.8,0,169.7,0,254.5,0c14,0,22.9,9,22.9,23c0,19,0,37.9,0,56.9
			c0,7.3-6.4,11.9-12.6,9.1c-4-1.8-5.5-5.1-5.4-9.4c0.1-18.2,0-36.4,0-54.7c0-6.4-0.4-6.8-6.7-6.8H24.8c-6.3,0-6.7,0.4-6.7,6.9
			c0,49.3,0,98.6,0,147.9c0,5.9,0.5,6.5,6.3,6.5c7.1,0,14.2,0,21.3,0s10.5,3.4,10.5,10.6c0,12.8,0,25.7,0,38.6
			c0,1.2,0.1,2.4,0.2,3.6L58,233.2z"/>
		<path class="st0" d="M150.1,59.8c26.9,0,53.9,0,80.8,0c6.2,0,9.9,2.8,10.4,7.9c0.6,4.4-2.1,8.6-6.4,9.7c-1.1,0.3-2.2,0.5-3.3,0.5
			c-54.2,0-108.5,0-162.7,0c-6.3,0-10.2-4-9.9-9.6c0.2-4.3,3.5-7.8,7.7-8.2c1.5-0.1,3-0.2,4.5-0.2L150.1,59.8z"/>
		<path class="st0" d="M99.2,119.5h29.9c4.4,0,7.8,1.5,9.5,5.8c1.8,4.5-0.3,9.7-4.8,11.5c-0.3,0.1-0.7,0.2-1,0.3
			c-1.5,0.3-2.9,0.5-4.4,0.5c-19.6,0-39.2,0-58.7,0c-6.2,0-10-2.9-10.6-7.8c-0.7-6,3.2-10.2,9.9-10.3c9.2-0.1,18.4,0,27.7,0
			L99.2,119.5z"/>
		<path class="st0" d="M220.8,184.8c-0.1-4.9,3.8-8.9,8.7-9c0.1,0,0.2,0,0.3,0c4.9,0,8.8,3.9,8.9,8.8c0,5-3.9,9.1-8.9,9.2
			C224.8,193.8,220.8,189.8,220.8,184.8C220.8,184.8,220.8,184.8,220.8,184.8z"/>
		<path class="st0" d="M280.7,184.6c0.1,5-3.8,9.1-8.8,9.2s-9.1-3.8-9.2-8.8s3.8-9.1,8.8-9.2S280.6,179.6,280.7,184.6z"/>
		<path class="st0" d="M313.9,175.9c4.9,0,8.8,3.9,8.9,8.8c0,0.1,0,0.1,0,0.2c0,5-4.1,9-9.1,8.9c0,0,0,0,0,0c-5-0.1-8.9-4.2-8.9-9.1
			C304.8,179.7,308.9,175.8,313.9,175.9C313.8,175.9,313.8,175.9,313.9,175.9z"/>
	</g>
</g>
</svg>
