<svg xmlns="http://www.w3.org/2000/svg" viewBox="0 0 244.18 244.18"><g id="Layer_2" data-name="Layer 2"><g id="Layer_1-2" data-name="Layer 1"><path d="M44.42,100.1q0-37,0-74C44.44,8.88,53.36,0,70.61,0H218.55c16.36,0,25.63,9.33,25.63,25.78q0,74.22,0,148.45c0,16.28-9.06,25.51-25.29,25.52q-74.71.08-149.44,0c-16.08,0-25-9-25-25.18C44.38,149.75,44.42,124.93,44.42,100.1ZM67.36,22.89v154H221.17v-154Z"/><path d="M0,44.71H22.47V221.38H199.4v22.8H25.83C9.36,244.18,0,234.91,0,218.58V44.71Z"/><path d="M133.44,111.15v21.73h43.67V155H111.72c-.13-.14-.55-.38-.55-.62-.06-15.32-.52-30.65,0-45.94.41-10.82,10-19.21,21.07-19.54,7.31-.21,14.62,0,22.38,0V67.24h-43.3V44.77c1.38-.13,2.67-.35,4-.35,12.82,0,25.65-.15,38.47,0,14.7.2,23.52,9.19,23.67,23.86.07,6.82.14,13.65,0,20.48-.34,13.09-9.51,22.13-22.58,22.34C147.9,111.25,140.93,111.15,133.44,111.15Z"/></g></g></svg>