<svg version="1.1" id="Layer_1" xmlns="http://www.w3.org/2000/svg" xmlns:xlink="http://www.w3.org/1999/xlink" x="0px" y="0px" viewBox="0 0 378.8 382.4" xml:space="preserve">
	<path class="fill" d="M237,0l8.8,9.4L206,48.9c8.4,12.4,11.4,25.6,7.4,40c-2.7,10.5-9.3,19.6-18.3,25.6
		c-20.9,14.3-49.5,8.9-63.7-12C120,85.8,120.8,63.7,133.4,48c12.7-16.1,39.1-24.8,63.8-8c2.3-2.4,4.6-5,7-7.5
		c10.7-10.8,21.3-21.6,32-32.4L237,0z M202,76.3c-0.3-18-15.2-32.4-33.2-32c-17.6,0.3-31.7,14.5-32,32c-0.3,18,14,32.9,32,33.2
		c18,0.3,32.9-14,33.2-32C202,77.1,202,76.7,202,76.3z"/>
	<path class="fill" d="M247.5,115.8v156.3l-116.9-51.9c-1.3,11.9-7.6,18.7-20,19.7c0,5.9,0,11.7,0,17.5c0,10-5,15-14.9,15H84.6v32.5
		H45.4v-65.1c-6.9-0.3-13.1-2.4-16-8.4c-2.6-5.2-3.3-11.4-5-17.8H0v-39.1h25.9c0-2.9,0-5.4,0-7.8c0.1-10.1,8.3-18.3,18.4-18.4
		c22.5-0.1,44.9-0.1,67.3,0c9.6-0.1,17.6,7.2,18.5,16.7c0.1,0.7,0.2,1.5,0.4,2.8L247.5,115.8z"/>
	<path class="fill" d="M234.4,331L183,382.4l-71.5-71.5c0.2-0.3,1-1.2,1.9-2c11.4-11.4,22.7-22.8,34.2-34.1c1.5-1.4,3.4-2.2,5.4-2.3
		c6.9-0.3,13.7-0.2,20.6,0c1.4,0,2.8,0.6,3.9,1.5c18.9,18.7,37.7,37.5,56.4,56.3C234.1,330.5,234.2,330.7,234.4,331z M154.1,328.4
		l25.3-25.3l-7.8-8.6l-25.8,25.7L154.1,328.4z M173.5,347.7c8.8-8.6,17.4-17,26-25.4l-8-8.3l-25.7,25.7L173.5,347.7z"/>
	<path class="fill" d="M332.2,5.2l46,46c-1.9,1.8-4.2,3.7-6.3,5.8c-14.5,14.4-28.9,28.9-43.4,43.3c-1.5,1.4-3.4,2.2-5.4,2.3
		c-13,0.2-25.9,0.1-38.9,0.1h-3.6V79.1c0-6.6-0.1-13.2,0.1-19.8c0-1.3,0.4-2.6,1.3-3.6C298.5,38.8,315.4,22,332.2,5.2
		C332.3,5.1,332.5,5.1,332.2,5.2z M310,63.5c-5.4-0.1-9.9,4.1-10,9.5c0,0,0,0,0,0.1c0,5.4,4.2,9.8,9.6,10c5.4,0.1,9.8-4.2,9.9-9.5
		c0,0,0,0,0-0.1c0.2-5.3-3.9-9.7-9.1-9.9C310.2,63.5,310.1,63.5,310,63.5z"/>
	<path class="fill" d="M268.5,305.2l45.8-45.7l64.5,64.6l-46.2,45.1L268.5,305.2z M321.7,278.2l-12.6,1c-0.1,0.3-0.2,0.7-0.3,1
		c1,13.3,1.9,26.6,3,39.9c0.1,3,2.5,5.5,5.6,5.6c3.8,0.4,7.7,0.7,11.5,1c9.9,0.8,19.8,1.5,30.2,2.3c0.3-4.4,0.6-8.5,0.9-13
		c-10.4-0.8-20.4-1.7-30.5-2.4c-5.4-0.4-5.4-0.3-5.8-5.9C323.2,298.1,322.5,288.4,321.7,278.2L321.7,278.2z"/>
	<path class="fill" d="M313,197.6c0.5-1.4,0.8-2.6,1.2-3.7c2.6-7.5,9.6-12.7,17.6-12.9c4.9-0.2,9.7-0.2,14.6,0
		c10.1,0.2,18.3,8.2,18.7,18.3c0.3,11.1,0.1,22.1,0.1,33.5h-51.9v-12.6h-38.7c0-8.5-0.8-16.8,0.2-24.8s9.2-13.9,17.5-14.3
		c8.9-0.4,16.6,4.6,19.5,12.7C312.3,194.9,312.6,196.1,313,197.6z"/>
	<path class="fill" d="M339.1,135.3c10.8-0.1,19.6,8.6,19.7,19.3c0,10.8-8.7,19.6-19.5,19.7c-10.8,0-19.6-8.7-19.7-19.5l0,0
		C319.6,144,328.3,135.3,339.1,135.3z"/>
	<path class="fill" d="M280.5,161.4c0-7.2,5.8-13.1,13-13.1c7.2,0,13.1,5.8,13.1,13c0,7.2-5.8,13.1-13,13.1
		C286.4,174.4,280.5,168.6,280.5,161.4z"/>
</svg>
