<svg xmlns="http://www.w3.org/2000/svg" viewBox="0 0 280 100"><defs><style>.cls-1{fill:#ff914d;}.cls-2{isolation:isolate;}.cls-3{fill:#fff;}</style></defs><g id="Layer_2" data-name="Layer 2"><g id="Layer_1-2" data-name="Layer 1"><rect class="cls-1" width="160.33" height="80.18"/><g class="cls-2"><g class="cls-2"><path class="cls-3" d="M76.94,74.36H60L39.81,47.86,34.4,53.75V74.36H21.29V8.82H34.4V40.45L62.7,8.82H78.27l-29,31.35Z"/></g><g class="cls-2"><path class="cls-3" d="M108.38,23V33.52C97.45,32.76,92,37.6,92,51.19V74.36H78.94V23.83H92V33l4-7a13.14,13.14,0,0,1,8.64-3.42A14.16,14.16,0,0,1,108.38,23Z"/></g><g class="cls-2"><path class="cls-3" d="M155.49,52.52h-35.9c.85,10.63,5.6,14,11.68,14,5.6,0,9.69-3.14,10.54-8.55h13.11C152.35,69.71,142.86,75.69,131,75.69c-13.87,0-24.6-8.64-24.6-26.4,0-15.49,10.16-26.79,25.64-26.79s23.65,11.78,23.65,25.55A39.06,39.06,0,0,1,155.49,52.52ZM120,44h22.22c-.85-8-4.46-12.26-10.73-12.26C125.38,31.71,121.11,35.61,120,44Z"/><path class="cls-3" d="M216.94,74.36H202.12l-8.55-38.47-8.64,38.47H170L154,23.83H168.6l8.92,39.61L185.79,24h15.76l8.55,39.32,8.83-39.51H233Z"/><path class="cls-3" d="M279.81,52.52h-35.9c.86,10.63,5.6,14,11.68,14,5.61,0,9.69-3.14,10.54-8.55h13.11c-2.56,11.78-12.06,17.76-23.93,17.76-13.87,0-24.6-8.64-24.6-26.4,0-15.49,10.16-26.79,25.64-26.79S280,34.28,280,48.05A39.06,39.06,0,0,1,279.81,52.52ZM244.29,44h22.22c-.85-8-4.46-12.26-10.73-12.26C249.7,31.71,245.43,35.61,244.29,44Z"/></g></g><g class="cls-2"><g class="cls-2"><path class="cls-3" d="M24.52,99.8H17.85v-10h6.52v1H19.1v3.49h4.84v1H19.1v3.49h5.42Z"/><path class="cls-3" d="M36.31,95.09V99.8H35.07V95.67a14.41,14.41,0,0,0-.06-1.5,1.39,1.39,0,0,0-1.54-1.29c-1,0-1.69.77-1.69,3.11V99.8H30.53V95.67a14.94,14.94,0,0,0-.05-1.5,1.39,1.39,0,0,0-1.54-1.29c-1,0-1.69.77-1.69,3.11V99.8H26V92.1h1.25v1.12l.49-.88a2.54,2.54,0,0,1,1.63-.45,2.18,2.18,0,0,1,2.22,1.44l.69-1a2.5,2.5,0,0,1,1.62-.45,2.19,2.19,0,0,1,2.34,1.88A7.89,7.89,0,0,1,36.31,95.09Z"/><path class="cls-3" d="M48.73,95.09V99.8H47.48V95.67a14.94,14.94,0,0,0,0-1.5,1.39,1.39,0,0,0-1.54-1.29c-1,0-1.69.77-1.69,3.11V99.8H43V95.67a12.06,12.06,0,0,0-.06-1.5,1.38,1.38,0,0,0-1.54-1.29c-1,0-1.68.77-1.68,3.11V99.8H38.42V92.1h1.25v1.12l.49-.88a2.54,2.54,0,0,1,1.63-.45A2.18,2.18,0,0,1,44,93.33l.69-1a2.5,2.5,0,0,1,1.62-.45,2.19,2.19,0,0,1,2.34,1.88A7.89,7.89,0,0,1,48.73,95.09Z"/><path class="cls-3" d="M55.12,98.69l-.42.83a3.34,3.34,0,0,1-1.93.48,2.21,2.21,0,0,1-2.48-2.19c0-1.75,1.31-2.65,4.33-2.65h.49V95a9.13,9.13,0,0,0,0-.93c-.06-.71-.46-1.18-1.49-1.18s-1.57.57-1.66,1.63H50.62a2.7,2.7,0,0,1,3-2.59c1.83,0,2.6.77,2.73,2,0,.3,0,.68,0,1v2.9a14.18,14.18,0,0,0,.14,2H55.26Zm0-1.81v-.79c-2.12-.16-3.46.29-3.46,1.61,0,.93.6,1.34,1.54,1.34C54.35,99,55.11,98.27,55.11,96.88Z"/><path class="cls-3" d="M72.06,99.8H70.81V94.64c0-1.25,0-2.65,0-3.73-.33,1.08-.8,2.49-1.22,3.71L67.85,99.8H66.28l-1.8-5.2c-.41-1.2-.87-2.59-1.19-3.67,0,1.09,0,2.47,0,3.71V99.8H62.07v-10h2.06l3,9,3-9h2Z"/><path class="cls-3" d="M78.55,98.69l-.42.83a3.34,3.34,0,0,1-1.93.48,2.21,2.21,0,0,1-2.48-2.19c0-1.75,1.3-2.65,4.33-2.65h.49V95a9.13,9.13,0,0,0,0-.93c-.06-.71-.46-1.18-1.5-1.18s-1.56.57-1.65,1.63H74.05a2.69,2.69,0,0,1,3-2.59c1.83,0,2.6.77,2.74,2,0,.3,0,.68,0,1v2.9a14.18,14.18,0,0,0,.14,2H78.69Zm0-1.81v-.79c-2.12-.16-3.46.29-3.46,1.61,0,.93.6,1.34,1.54,1.34C77.78,99,78.54,98.27,78.54,96.88Z"/><path class="cls-3" d="M85.53,92v1c-1.31-.09-2.3.68-2.3,2.44V99.8H82V92.1h1.25v1.2l.7-1A2,2,0,0,1,85,91.92,1.22,1.22,0,0,1,85.53,92Z"/><path class="cls-3" d="M91.84,94.29h-1.3a1.59,1.59,0,0,0-1.63-1.44c-.87,0-1.28.48-1.28,1.15s.64,1.08,1.69,1.35c1.77.47,2.61,1.16,2.61,2.47S90.7,100,89.07,100a2.72,2.72,0,0,1-3-2.47h1.31A1.65,1.65,0,0,0,89.16,99c.83,0,1.49-.38,1.49-1.12s-.52-1.13-1.81-1.48-2.49-.94-2.49-2.29,1.08-2.26,2.66-2.26A2.58,2.58,0,0,1,91.84,94.29Z"/><path class="cls-3" d="M100,95.47V99.8H98.7V95.55c0-.39,0-.71,0-1.1a1.55,1.55,0,0,0-1.76-1.57c-1.2,0-2.22.9-2.22,3.53V99.8H93.44V89.05h1.25v4.37l.48-.89a2.92,2.92,0,0,1,2-.64,2.43,2.43,0,0,1,2.74,2.26C100,94.54,100,94.84,100,95.47Z"/><path class="cls-3" d="M104.58,96.09v-.81h3v.81Z"/><path class="cls-3" d="M113.94,94.28h4.69v1h-4.69V99.8h-1.25v-10h6.52v1h-5.27Z"/></g><g class="cls-2"><path class="cls-3" d="M124.1,92v1c-1.31-.09-2.3.68-2.3,2.44V99.8h-1.25V92.1h1.25v1.2l.7-1a2,2,0,0,1,1.07-.35A1.22,1.22,0,0,1,124.1,92Z"/></g><g class="cls-2"><path class="cls-3" d="M131.46,96.32h-5.58c.11,2,1.07,2.72,2.21,2.72a1.94,1.94,0,0,0,2-1.73h1.3A3.15,3.15,0,0,1,128,100c-2,0-3.5-1.31-3.5-4,0-2.5,1.55-4.09,3.66-4.09s3.29,1.59,3.29,3.84C131.48,95.85,131.48,96.05,131.46,96.32Zm-5.57-.95h4.33c-.12-1.6-.8-2.52-2.06-2.52S126,93.72,125.89,95.37Z"/><path class="cls-3" d="M139.43,96.32h-5.58c.12,2,1.08,2.72,2.21,2.72a1.93,1.93,0,0,0,2-1.73h1.31A3.16,3.16,0,0,1,136,100c-2,0-3.5-1.31-3.5-4,0-2.5,1.56-4.09,3.66-4.09s3.3,1.59,3.3,3.84A5,5,0,0,1,139.43,96.32Zm-5.56-.95h4.33c-.12-1.6-.8-2.52-2.07-2.52S134,93.72,133.87,95.37Z"/></g><g class="cls-2"><path class="cls-3" d="M142.3,97.59c0,.23,0,.48,0,.72,0,.5.26.66.94.59v.9a6.55,6.55,0,0,1-.89,0c-.72,0-1.26-.23-1.3-1.2,0-.26,0-.6,0-1V89.12h1.25Z"/></g><g class="cls-2"><path class="cls-3" d="M149.25,98.69l-.42.83a3.34,3.34,0,0,1-1.93.48,2.21,2.21,0,0,1-2.49-2.19c0-1.75,1.31-2.65,4.33-2.65h.49V95c0-.34,0-.64,0-.93-.06-.71-.47-1.18-1.5-1.18s-1.57.57-1.66,1.63h-1.3a2.69,2.69,0,0,1,3-2.59c1.83,0,2.6.77,2.73,2,0,.3,0,.68,0,1v2.9a13,13,0,0,0,.15,2h-1.25Zm0-1.81v-.79c-2.12-.16-3.45.29-3.45,1.61,0,.93.59,1.34,1.54,1.34C148.48,99,149.23,98.27,149.23,96.88Z"/><path class="cls-3" d="M159.19,95.47V99.8h-1.25V95.55c0-.39,0-.71,0-1.1a1.57,1.57,0,0,0-1.76-1.57c-1.21,0-2.22.9-2.22,3.53V99.8h-1.25V92.1h1.25v1.32l.48-.89a2.9,2.9,0,0,1,2-.64,2.44,2.44,0,0,1,2.75,2.26C159.19,94.54,159.19,94.84,159.19,95.47Z"/><path class="cls-3" d="M167.52,94.68h-1.3c-.28-1.23-.95-1.83-2-1.83-1.2,0-2.22,1-2.22,3,0,2.24,1,3.17,2.13,3.17a2,2,0,0,0,2-1.7h1.31a3.17,3.17,0,0,1-3.37,2.66c-2,0-3.43-1.22-3.43-4,0-2.6,1.69-4.07,3.62-4.07A3.07,3.07,0,0,1,167.52,94.68Z"/><path class="cls-3" d="M175.27,96.32h-5.58c.11,2,1.07,2.72,2.21,2.72a1.94,1.94,0,0,0,2-1.73h1.3a3.15,3.15,0,0,1-3.35,2.69c-2,0-3.5-1.31-3.5-4,0-2.5,1.55-4.09,3.66-4.09s3.29,1.59,3.29,3.84C175.29,95.85,175.29,96.05,175.27,96.32Zm-5.57-.95H174c-.12-1.6-.8-2.52-2.06-2.52S169.85,93.72,169.7,95.37Z"/></g></g></g></g></svg>