<?xml version="1.0" encoding="utf-8"?>
<!-- Generator: Adobe Illustrator 24.1.0, SVG Export Plug-In . SVG Version: 6.00 Build 0)  -->
<svg version="1.1" id="Layer_1" xmlns="http://www.w3.org/2000/svg" xmlns:xlink="http://www.w3.org/1999/xlink" x="0px" y="0px"
	 viewBox="0 0 280 100" style="enable-background:new 0 0 280 100;" xml:space="preserve">
<style type="text/css">
	.st0{fill:none;stroke:#6474E5;stroke-miterlimit:10;}
	.st1{fill:#FFFFFF;}
</style>
<g id="Layer_2_1_">
	<g id="Layer_1-2">
		<rect x="1.2" y="0.6" class="st0" width="158" height="79"/>
		<g>
			<g>
				<path class="st1" d="M76.9,74.4H60L39.8,47.9l-5.4,5.9v20.6H21.3V8.8h13.1v31.6L62.7,8.8h15.6l-29,31.3L76.9,74.4z"/>
			</g>
			<g>
				<path class="st1" d="M108.4,23v10.5C97.4,32.8,92,37.6,92,51.2v23.2H78.9V23.8H92V33l4-7c2.4-2.2,5.4-3.4,8.6-3.4
					C105.9,22.6,107.2,22.7,108.4,23z"/>
			</g>
			<g>
				<path class="st1" d="M155.5,52.5h-35.9c0.8,10.6,5.6,14,11.7,14c5.6,0,9.7-3.1,10.5-8.5h13.1c-2.6,11.7-12.1,17.7-23.9,17.7
					c-13.9,0-24.6-8.6-24.6-26.4c0-15.5,10.2-26.8,25.6-26.8s23.6,11.8,23.6,25.5C155.7,49.5,155.6,51,155.5,52.5z M120,44h22.2
					c-0.9-8-4.5-12.3-10.7-12.3C125.4,31.7,121.1,35.6,120,44z"/>
				<path class="st1" d="M216.9,74.4h-14.8l-8.6-38.5l-8.6,38.5H170l-16-50.5h14.6l8.9,39.6l8.3-39.4h15.8l8.6,39.3l8.8-39.5H233
					L216.9,74.4z"/>
				<path class="st1" d="M279.8,52.5h-35.9c0.9,10.6,5.6,14,11.7,14c5.6,0,9.7-3.1,10.5-8.5h13.1c-2.6,11.8-12.1,17.8-23.9,17.8
					c-13.9,0-24.6-8.6-24.6-26.4c0-15.5,10.2-26.8,25.6-26.8S280,34.3,280,48C280,49.5,280,51,279.8,52.5z M244.3,44h22.2
					c-0.9-8-4.5-12.3-10.7-12.3C249.7,31.7,245.4,35.6,244.3,44z"/>
			</g>
		</g>
		<g>
			<g>
				<path class="st1" d="M24.5,99.8h-6.7v-10h6.5v1h-5.3v3.5h4.8v1h-4.8v3.5h5.4V99.8z"/>
				<path class="st1" d="M36.3,95.1v4.7h-1.2v-4.1c0-0.5,0-1-0.1-1.5c-0.1-0.8-0.7-1.3-1.5-1.3c0,0,0,0-0.1,0c-1,0-1.7,0.8-1.7,3.1
					v3.8h-1.2v-4.1c0-0.5,0-1,0-1.5c-0.1-0.8-0.7-1.3-1.5-1.3c0,0,0,0-0.1,0c-1,0-1.7,0.8-1.7,3.1v3.8H26v-7.7h1.2v1.1l0.5-0.9
					c0.5-0.3,1.1-0.5,1.6-0.4c1-0.1,1.9,0.5,2.2,1.4l0.7-1c0.5-0.3,1-0.5,1.6-0.4c1.2-0.1,2.2,0.7,2.3,1.9
					C36.3,94.2,36.3,94.6,36.3,95.1z"/>
				<path class="st1" d="M48.7,95.1v4.7h-1.2v-4.1c0-0.5,0-1,0-1.5c-0.1-0.8-0.7-1.3-1.5-1.3c0,0,0,0-0.1,0c-1,0-1.7,0.8-1.7,3.1
					v3.8H43v-4.1c0-0.5,0-1-0.1-1.5c0-0.8-0.7-1.3-1.5-1.3c0,0-0.1,0-0.1,0c-1,0-1.7,0.8-1.7,3.1v3.8h-1.3v-7.7h1.2v1.1l0.5-0.9
					c0.5-0.3,1.1-0.5,1.6-0.4c1-0.1,1.9,0.5,2.2,1.4l0.7-1c0.5-0.3,1-0.5,1.6-0.4c1.2-0.1,2.2,0.7,2.3,1.9
					C48.7,94.2,48.7,94.6,48.7,95.1z"/>
				<path class="st1" d="M55.1,98.7l-0.4,0.8c-0.6,0.4-1.3,0.5-1.9,0.5c-1.2,0.1-2.3-0.7-2.5-1.9c0-0.1,0-0.2,0-0.3
					c0-1.8,1.3-2.7,4.3-2.7h0.5V95c0-0.3,0-0.6,0-0.9c-0.1-0.7-0.5-1.2-1.5-1.2s-1.6,0.6-1.7,1.6h-1.3c0.1-1.5,1.3-2.7,2.8-2.6
					c0.1,0,0.1,0,0.2,0c1.8,0,2.6,0.8,2.7,2c0,0.3,0,0.7,0,1v2.9c0,0.7,0,1.3,0.1,2h-1.2L55.1,98.7z M55.1,96.9v-0.8
					c-2.1-0.2-3.5,0.3-3.5,1.6c0,0.9,0.6,1.3,1.5,1.3C54.3,99,55.1,98.3,55.1,96.9L55.1,96.9z"/>
				<path class="st1" d="M72.1,99.8h-1.2v-5.2c0-1.2,0-2.7,0-3.7c-0.3,1.1-0.8,2.5-1.2,3.7l-1.7,5.2h-1.6l-1.8-5.2
					c-0.4-1.2-0.9-2.6-1.2-3.7c0,1.1,0,2.5,0,3.7v5.2h-1.2v-10h2.1l3,9l3-9h2L72.1,99.8z"/>
				<path class="st1" d="M78.6,98.7l-0.4,0.8c-0.6,0.4-1.3,0.5-1.9,0.5c-1.2,0.1-2.3-0.7-2.5-1.9c0-0.1,0-0.2,0-0.3
					c0-1.8,1.3-2.7,4.3-2.7h0.5V95c0-0.3,0-0.6,0-0.9c-0.1-0.7-0.5-1.2-1.5-1.2s-1.6,0.6-1.7,1.6h-1.3c0-1.5,1.3-2.7,2.8-2.6
					c0.1,0,0.2,0,0.2,0c1.8,0,2.6,0.8,2.7,2c0,0.3,0,0.7,0,1v2.9c0,0.7,0,1.3,0.1,2h-1.2L78.6,98.7z M78.6,96.9v-0.8
					c-2.1-0.2-3.5,0.3-3.5,1.6c0,0.9,0.6,1.3,1.5,1.3C77.8,99,78.5,98.3,78.6,96.9L78.6,96.9z"/>
				<path class="st1" d="M85.5,92v1c-1.3-0.1-2.3,0.7-2.3,2.4v4.4H82v-7.7h1.2v1.2l0.7-1c0.3-0.2,0.7-0.4,1.1-0.4
					C85.2,91.9,85.4,91.9,85.5,92z"/>
				<path class="st1" d="M91.8,94.3h-1.3c-0.1-0.8-0.8-1.5-1.6-1.4c-0.9,0-1.3,0.5-1.3,1.2s0.6,1.1,1.7,1.3c1.8,0.5,2.6,1.2,2.6,2.5
					s-1.2,2.2-2.9,2.2c-1.5,0.2-2.8-0.9-3-2.4c0,0,0,0,0-0.1h1.3c0.1,0.9,0.9,1.5,1.8,1.5c0.8,0,1.5-0.4,1.5-1.1s-0.5-1.1-1.8-1.5
					s-2.5-0.9-2.5-2.3s1.1-2.3,2.7-2.3c1.4-0.1,2.7,0.9,2.8,2.3C91.8,94.2,91.8,94.2,91.8,94.3z"/>
				<path class="st1" d="M100,95.5v4.3h-1.3v-4.2c0-0.4,0-0.7,0-1.1c0-0.9-0.7-1.6-1.5-1.6c-0.1,0-0.2,0-0.2,0
					c-1.2,0-2.2,0.9-2.2,3.5v3.4h-1.3V89.1h1.2v4.4l0.5-0.9c0.6-0.5,1.3-0.7,2-0.6c1.3-0.2,2.6,0.8,2.7,2.1c0,0.1,0,0.1,0,0.2
					C100,94.5,100,94.8,100,95.5z"/>
				<path class="st1" d="M104.6,96.1v-0.8h3v0.8H104.6z"/>
				<path class="st1" d="M113.9,94.3h4.7v1h-4.7v4.5h-1.2v-10h6.5v1h-5.3V94.3z"/>
			</g>
			<g>
				<path class="st1" d="M124.1,92v1c-1.3-0.1-2.3,0.7-2.3,2.4v4.4h-1.2v-7.7h1.2v1.2l0.7-1c0.3-0.2,0.7-0.3,1.1-0.3
					C123.7,91.9,123.9,91.9,124.1,92z"/>
			</g>
			<g>
				<path class="st1" d="M131.5,96.3h-5.6c0.1,2,1.1,2.7,2.2,2.7c1,0,1.9-0.7,2-1.7h1.3c-0.2,1.7-1.7,2.8-3.4,2.7
					c-2,0-3.5-1.3-3.5-4c0-2.5,1.6-4.1,3.7-4.1s3.3,1.6,3.3,3.8C131.5,95.8,131.5,96.1,131.5,96.3z M125.9,95.4h4.3
					c-0.1-1.6-0.8-2.5-2.1-2.5S126,93.7,125.9,95.4z"/>
				<path class="st1" d="M139.4,96.3h-5.6c0.1,2,1.1,2.7,2.2,2.7c1,0,1.9-0.7,2-1.7h1.3c-0.2,1.6-1.7,2.8-3.4,2.7
					c-2,0-3.5-1.3-3.5-4c0-2.5,1.6-4.1,3.7-4.1s3.3,1.6,3.3,3.8C139.5,95.9,139.5,96.1,139.4,96.3z M133.9,95.4h4.3
					c-0.1-1.6-0.8-2.5-2.1-2.5S134,93.7,133.9,95.4z"/>
			</g>
			<g>
				<path class="st1" d="M142.3,97.6c0,0.2,0,0.5,0,0.7c0,0.5,0.3,0.7,0.9,0.6v0.9c-0.3,0-0.6,0-0.9,0c-0.7,0-1.3-0.2-1.3-1.2
					c0-0.3,0-0.6,0-1v-8.5h1.2V97.6z"/>
			</g>
			<g>
				<path class="st1" d="M149.2,98.7l-0.4,0.8c-0.6,0.4-1.3,0.5-1.9,0.5c-1.2,0.2-2.3-0.7-2.5-1.9c0-0.1,0-0.2,0-0.3
					c0-1.8,1.3-2.7,4.3-2.7h0.5V95c0-0.3,0-0.6,0-0.9c-0.1-0.7-0.5-1.2-1.5-1.2s-1.6,0.6-1.7,1.6h-1.3c0-1.5,1.3-2.7,2.8-2.6
					c0.1,0,0.2,0,0.2,0c1.8,0,2.6,0.8,2.7,2c0,0.3,0,0.7,0,1v2.9c0,0.7,0,1.3,0.1,2h-1.2L149.2,98.7z M149.2,96.9v-0.8
					c-2.1-0.2-3.4,0.3-3.4,1.6c0,0.9,0.6,1.3,1.5,1.3C148.5,99,149.2,98.3,149.2,96.9L149.2,96.9z"/>
				<path class="st1" d="M159.2,95.5v4.3h-1.2v-4.2c0-0.4,0-0.7,0-1.1c0-0.9-0.7-1.6-1.6-1.6c-0.1,0-0.1,0-0.2,0
					c-1.2,0-2.2,0.9-2.2,3.5v3.4h-1.2v-7.7h1.2v1.3l0.5-0.9c0.6-0.5,1.3-0.7,2-0.6c1.3-0.2,2.6,0.8,2.7,2.1c0,0.1,0,0.1,0,0.2
					C159.2,94.5,159.2,94.8,159.2,95.5z"/>
				<path class="st1" d="M167.5,94.7h-1.3c-0.3-1.2-0.9-1.8-2-1.8c-1.2,0-2.2,1-2.2,3c0,2.2,1,3.2,2.1,3.2c1,0,1.9-0.7,2-1.7h1.3
					c-0.3,1.6-1.7,2.8-3.4,2.7c-2,0-3.4-1.2-3.4-4c0-2.6,1.7-4.1,3.6-4.1C165.9,91.8,167.4,93,167.5,94.7z"/>
				<path class="st1" d="M175.3,96.3h-5.6c0.1,2,1.1,2.7,2.2,2.7c1,0,1.9-0.7,2-1.7h1.3c-0.2,1.6-1.7,2.8-3.4,2.7
					c-2,0-3.5-1.3-3.5-4c0-2.5,1.6-4.1,3.7-4.1s3.3,1.6,3.3,3.8C175.3,95.8,175.3,96.1,175.3,96.3z M169.7,95.4h4.3
					c-0.1-1.6-0.8-2.5-2.1-2.5S169.9,93.7,169.7,95.4z"/>
			</g>
		</g>
	</g>
</g>
</svg>
