<?xml version="1.0" encoding="utf-8"?>
<!-- Generator: Adobe Illustrator 24.1.0, SVG Export Plug-In . SVG Version: 6.00 Build 0)  -->
<svg version="1.1" id="Layer_1" xmlns="http://www.w3.org/2000/svg" xmlns:xlink="http://www.w3.org/1999/xlink" x="0px" y="0px"
	 viewBox="0 0 280 100" style="enable-background:new 0 0 280 100;" xml:space="preserve">
<style type="text/css">
	.st0{fill:none;stroke:#6474E5;stroke-miterlimit:10;}
	.st1{fill:#202020;}
</style>
<g id="Layer_2_1_">
	<g id="Layer_1-2">
		<rect y="0.6" class="st0" width="158" height="79"/>
		<g>
			<g>
				<path class="st1" d="M75.8,74.4H58.8L38.6,47.9l-5.4,5.9v20.6H20.1V8.8h13.1v31.6L61.5,8.8h15.6l-29,31.3L75.8,74.4z"/>
			</g>
			<g>
				<path class="st1" d="M107.2,23v10.5c-10.9-0.8-16.4,4.1-16.4,17.7v23.2H77.8V23.8h13.1V33l4-7c2.4-2.2,5.4-3.4,8.6-3.4
					C104.7,22.6,106,22.7,107.2,23z"/>
			</g>
			<g>
				<path class="st1" d="M154.3,52.5h-35.9c0.8,10.6,5.6,14,11.7,14c5.6,0,9.7-3.1,10.5-8.5h13.1c-2.6,11.7-12.1,17.7-23.9,17.7
					c-13.9,0-24.6-8.6-24.6-26.4c0-15.5,10.2-26.8,25.6-26.8s23.6,11.8,23.6,25.5C154.5,49.5,154.5,51,154.3,52.5z M118.8,44H141
					c-0.9-8-4.5-12.3-10.7-12.3C124.2,31.7,119.9,35.6,118.8,44z"/>
				<path class="st1" d="M215.8,74.4h-14.8l-8.6-38.5l-8.6,38.5h-14.9l-16-50.5h14.6l8.9,39.6l8.3-39.4h15.8l8.6,39.3l8.8-39.5h14.1
					L215.8,74.4z"/>
				<path class="st1" d="M278.6,52.5h-35.9c0.9,10.6,5.6,14,11.7,14c5.6,0,9.7-3.1,10.5-8.5h13.1c-2.6,11.8-12.1,17.8-23.9,17.8
					c-13.9,0-24.6-8.6-24.6-26.4c0-15.5,10.2-26.8,25.6-26.8s23.7,11.7,23.7,25.5C278.8,49.5,278.8,51,278.6,52.5z M243.1,44h22.2
					c-0.9-8-4.5-12.3-10.7-12.3C248.5,31.7,244.3,35.6,243.1,44z"/>
			</g>
		</g>
		<g>
			<g>
				<path class="st1" d="M23.3,99.8h-6.7v-10h6.5v1h-5.3v3.5h4.8v1h-4.8v3.5h5.4V99.8z"/>
				<path class="st1" d="M35.1,95.1v4.7h-1.2v-4.1c0-0.5,0-1-0.1-1.5c-0.1-0.8-0.7-1.3-1.5-1.3c0,0,0,0-0.1,0c-1,0-1.7,0.8-1.7,3.1
					v3.8h-1.2v-4.1c0-0.5,0-1,0-1.5c-0.1-0.8-0.7-1.3-1.5-1.3c0,0,0,0-0.1,0c-1,0-1.7,0.8-1.7,3.1v3.8h-1.3v-7.7h1.2v1.1l0.5-0.9
					c0.5-0.3,1.1-0.5,1.6-0.4c1-0.1,1.9,0.5,2.2,1.4l0.7-1c0.5-0.3,1-0.5,1.6-0.4c1.2-0.1,2.2,0.7,2.3,1.9
					C35.1,94.2,35.1,94.6,35.1,95.1z"/>
				<path class="st1" d="M47.6,95.1v4.7h-1.2v-4.1c0-0.5,0-1,0-1.5c-0.1-0.8-0.7-1.3-1.5-1.3c0,0,0,0-0.1,0c-1,0-1.7,0.8-1.7,3.1
					v3.8h-1.2v-4.1c0-0.5,0-1-0.1-1.5c0-0.8-0.7-1.3-1.5-1.3c0,0-0.1,0-0.1,0c-1,0-1.7,0.8-1.7,3.1v3.8h-1.3v-7.7h1.2v1.1l0.5-0.9
					c0.5-0.3,1.1-0.5,1.6-0.4c1-0.1,1.9,0.5,2.2,1.4l0.7-1c0.5-0.3,1-0.5,1.6-0.4c1.2-0.1,2.2,0.7,2.3,1.9
					C47.5,94.2,47.6,94.6,47.6,95.1z"/>
				<path class="st1" d="M53.9,98.7l-0.4,0.8c-0.6,0.4-1.3,0.5-1.9,0.5c-1.2,0.1-2.3-0.7-2.5-1.9c0-0.1,0-0.2,0-0.3
					c0-1.8,1.3-2.7,4.3-2.7h0.5V95c0-0.3,0-0.6,0-0.9c-0.1-0.7-0.5-1.2-1.5-1.2s-1.6,0.6-1.7,1.6h-1.3c0.1-1.5,1.3-2.7,2.8-2.6
					c0.1,0,0.1,0,0.2,0c1.8,0,2.6,0.8,2.7,2c0,0.3,0,0.7,0,1v2.9c0,0.7,0,1.3,0.1,2h-1.2L53.9,98.7z M53.9,96.9v-0.8
					c-2.1-0.2-3.5,0.3-3.5,1.6c0,0.9,0.6,1.3,1.5,1.3C53.2,99,53.9,98.3,53.9,96.9L53.9,96.9z"/>
				<path class="st1" d="M70.9,99.8h-1.2v-5.2c0-1.2,0-2.7,0-3.7c-0.3,1.1-0.8,2.5-1.2,3.7l-1.7,5.2h-1.6l-1.8-5.2
					c-0.4-1.2-0.9-2.6-1.2-3.7c0,1.1,0,2.5,0,3.7v5.2h-1.2v-10H63l3,9l3-9h2L70.9,99.8z"/>
				<path class="st1" d="M77.4,98.7L77,99.5c-0.6,0.4-1.3,0.5-1.9,0.5c-1.2,0.1-2.3-0.7-2.5-1.9c0-0.1,0-0.2,0-0.3
					c0-1.8,1.3-2.7,4.3-2.7h0.5V95c0-0.3,0-0.6,0-0.9c-0.1-0.7-0.5-1.2-1.5-1.2s-1.6,0.6-1.7,1.6h-1.3c0-1.5,1.3-2.7,2.8-2.6
					c0.1,0,0.2,0,0.2,0c1.8,0,2.6,0.8,2.7,2c0,0.3,0,0.7,0,1v2.9c0,0.7,0,1.3,0.1,2h-1.2L77.4,98.7z M77.4,96.9v-0.8
					c-2.1-0.2-3.5,0.3-3.5,1.6c0,0.9,0.6,1.3,1.5,1.3C76.6,99,77.4,98.3,77.4,96.9L77.4,96.9z"/>
				<path class="st1" d="M84.4,92v1c-1.3-0.1-2.3,0.7-2.3,2.4v4.4h-1.2v-7.7h1.2v1.2l0.7-1c0.3-0.2,0.7-0.4,1.1-0.4
					C84,91.9,84.2,91.9,84.4,92z"/>
				<path class="st1" d="M90.7,94.3h-1.3c-0.1-0.8-0.8-1.5-1.6-1.4c-0.9,0-1.3,0.5-1.3,1.2s0.6,1.1,1.7,1.3c1.8,0.5,2.6,1.2,2.6,2.5
					s-1.2,2.2-2.9,2.2c-1.5,0.2-2.8-0.9-3-2.4c0,0,0,0,0-0.1h1.3c0.1,0.9,0.9,1.5,1.8,1.5c0.8,0,1.5-0.4,1.5-1.1s-0.5-1.1-1.8-1.5
					s-2.5-0.9-2.5-2.3s1.1-2.3,2.7-2.3c1.4-0.1,2.7,0.9,2.8,2.3C90.7,94.2,90.7,94.2,90.7,94.3z"/>
				<path class="st1" d="M98.8,95.5v4.3h-1.3v-4.2c0-0.4,0-0.7,0-1.1c0-0.9-0.7-1.6-1.5-1.6c-0.1,0-0.2,0-0.2,0
					c-1.2,0-2.2,0.9-2.2,3.5v3.4h-1.3V89.1h1.2v4.4l0.5-0.9c0.6-0.5,1.3-0.7,2-0.6c1.3-0.2,2.6,0.8,2.7,2.1c0,0.1,0,0.1,0,0.2
					C98.8,94.5,98.8,94.8,98.8,95.5z"/>
				<path class="st1" d="M103.4,96.1v-0.8h3v0.8H103.4z"/>
				<path class="st1" d="M112.8,94.3h4.7v1h-4.7v4.5h-1.2v-10h6.5v1h-5.3V94.3z"/>
			</g>
			<g>
				<path class="st1" d="M122.9,92v1c-1.3-0.1-2.3,0.7-2.3,2.4v4.4h-1.2v-7.7h1.2v1.2l0.7-1c0.3-0.2,0.7-0.3,1.1-0.3
					C122.6,91.9,122.7,91.9,122.9,92z"/>
			</g>
			<g>
				<path class="st1" d="M130.3,96.3h-5.6c0.1,2,1.1,2.7,2.2,2.7c1,0,1.9-0.7,2-1.7h1.3c-0.2,1.7-1.7,2.8-3.4,2.7
					c-2,0-3.5-1.3-3.5-4c0-2.5,1.6-4.1,3.7-4.1s3.3,1.6,3.3,3.8C130.3,95.8,130.3,96.1,130.3,96.3z M124.7,95.4h4.3
					c-0.1-1.6-0.8-2.5-2.1-2.5S124.8,93.7,124.7,95.4z"/>
				<path class="st1" d="M138.3,96.3h-5.6c0.1,2,1.1,2.7,2.2,2.7c1,0,1.9-0.7,2-1.7h1.3c-0.2,1.6-1.7,2.8-3.4,2.7
					c-2,0-3.5-1.3-3.5-4c0-2.5,1.6-4.1,3.7-4.1s3.3,1.6,3.3,3.8C138.3,95.9,138.3,96.1,138.3,96.3z M132.7,95.4h4.3
					c-0.1-1.6-0.8-2.5-2.1-2.5S132.8,93.7,132.7,95.4z"/>
			</g>
			<g>
				<path class="st1" d="M141.1,97.6c0,0.2,0,0.5,0,0.7c0,0.5,0.3,0.7,0.9,0.6v0.9c-0.3,0-0.6,0-0.9,0c-0.7,0-1.3-0.2-1.3-1.2
					c0-0.3,0-0.6,0-1v-8.5h1.2V97.6z"/>
			</g>
			<g>
				<path class="st1" d="M148.1,98.7l-0.4,0.8c-0.6,0.4-1.3,0.5-1.9,0.5c-1.2,0.2-2.3-0.7-2.5-1.9c0-0.1,0-0.2,0-0.3
					c0-1.8,1.3-2.7,4.3-2.7h0.5V95c0-0.3,0-0.6,0-0.9c-0.1-0.7-0.5-1.2-1.5-1.2s-1.6,0.6-1.7,1.6h-1.3c0-1.5,1.3-2.7,2.8-2.6
					c0.1,0,0.2,0,0.2,0c1.8,0,2.6,0.8,2.7,2c0,0.3,0,0.7,0,1v2.9c0,0.7,0,1.3,0.1,2h-1.2L148.1,98.7z M148.1,96.9v-0.8
					c-2.1-0.2-3.4,0.3-3.4,1.6c0,0.9,0.6,1.3,1.5,1.3C147.3,99,148.1,98.3,148.1,96.9L148.1,96.9z"/>
				<path class="st1" d="M158,95.5v4.3h-1.2v-4.2c0-0.4,0-0.7,0-1.1c0-0.9-0.7-1.6-1.6-1.6c-0.1,0-0.1,0-0.2,0
					c-1.2,0-2.2,0.9-2.2,3.5v3.4h-1.2v-7.7h1.2v1.3l0.5-0.9c0.6-0.5,1.3-0.7,2-0.6c1.3-0.2,2.6,0.8,2.7,2.1c0,0.1,0,0.1,0,0.2
					C158,94.5,158,94.8,158,95.5z"/>
				<path class="st1" d="M166.3,94.7H165c-0.3-1.2-0.9-1.8-2-1.8c-1.2,0-2.2,1-2.2,3c0,2.2,1,3.2,2.1,3.2c1,0,1.9-0.7,2-1.7h1.3
					c-0.3,1.6-1.7,2.8-3.4,2.7c-2,0-3.4-1.2-3.4-4c0-2.6,1.7-4.1,3.6-4.1C164.7,91.8,166.2,93,166.3,94.7z"/>
				<path class="st1" d="M174.1,96.3h-5.6c0.1,2,1.1,2.7,2.2,2.7c1,0,1.9-0.7,2-1.7h1.3c-0.2,1.6-1.7,2.8-3.4,2.7
					c-2,0-3.5-1.3-3.5-4c0-2.5,1.6-4.1,3.7-4.1s3.3,1.6,3.3,3.8C174.1,95.8,174.1,96.1,174.1,96.3z M168.5,95.4h4.3
					c-0.1-1.6-0.8-2.5-2.1-2.5S168.7,93.7,168.5,95.4z"/>
			</g>
		</g>
	</g>
</g>
</svg>
