<svg xmlns="http://www.w3.org/2000/svg" viewBox="0 0 215.87 94.44" id="logo">
  <defs>
    <style>
      .cls-1{fill:#6474e5;}
    </style>
  </defs>
  <g id="Layer_1-2" data-name="Layer 1">
    <!-- Rectange-->
    <path class="rectangle" d="M139,3V74H3V3H139m2-2H1V76H141V1Z" transform="translate(-1 -1)"/>

    <!-- Krewe -->
    <path d="M54.12,66.11H44.78V20.93h9.34V39.74L69.86,20.93H80.93L63.78,41.53l19,24.58H72L56.49,45.57l-2.37,2.36Z" transform="translate(-1 -1)"/>
    <path d="M101.61,32.89l.44,6.72H99.69c-6.28,0-7.43,3.27-7.43,8.2v18.3H83.43V32.89h8.19l.64,4.55c2.11-2.95,4.29-4.55,8.45-4.55Z" transform="translate(-1 -1)"/>
    <path d="M110.18,51.26c.19,6.08,3.59,9.09,9.34,9.09a16.53,16.53,0,0,0,9.54-2.94l2.43,5.43a19,19,0,0,1-12.29,3.91c-11.51,0-17.72-6.85-17.72-17.54,0-9.79,6-17.6,16.25-17.6,10.11,0,14.79,8,14.79,16.9v.13c0,.83-.07,1.66-.07,2.49v.13Zm14.27-4.73v-.32c0-5.38-2.37-8.07-6.59-8.07-2.88,0-7.17,1.73-7.61,8.39Z" transform="translate(-1 -1)"/>
    <path d="M176.55,32.89h8.76L173.22,66.11h-7.36l-7-23.94-8.44,23.94h-7.3L132.58,32.89h8.83l6,21.31,7.88-21.31h7.68l6.65,21.19Z" transform="translate(-1 -1)"/>
    <path d="M194.53,51.26c.19,6.08,3.59,9.09,9.35,9.09a16.52,16.52,0,0,0,9.53-2.94l2.43,5.43a19,19,0,0,1-12.28,3.91c-11.52,0-17.73-6.85-17.73-17.54,0-9.79,5.95-17.6,16.25-17.6,10.12,0,14.79,8,14.79,16.9v.13c0,.83-.07,1.66-.07,2.49v.13Zm14.27-4.73v-.32c0-5.38-2.36-8.07-6.59-8.07-2.88,0-7.17,1.73-7.61,8.39Z" transform="translate(-1 -1)"/>

    <!-- Emma Marsh - Freelance -->
    <path d="M8.72,89.84H3.53V94H9.28l-.13,1.21h-7V83.57H9l-.1,1.2H3.53v3.87H8.72Z" transform="translate(-1 -1)"/>
    <path d="M10.86,95.25v-6.4c0-.72,0-1.92,0-2.18H12L12.07,88A3.59,3.59,0,0,1,15,86.47a2.25,2.25,0,0,1,2.42,1.58,3.27,3.27,0,0,1,3-1.58c1.94,0,2.64,1.34,2.64,3.34v5.44H21.68V90.77c0-1.94-.08-3.17-1.54-3.17a2.66,2.66,0,0,0-2.42,1.94v5.71H16.41V90.5c0-1.75-.3-2.9-1.6-2.9a2.81,2.81,0,0,0-2.64,1.79v5.86Z" transform="translate(-1 -1)"/>
    <path d="M24.7,95.25v-6.4c0-.72,0-1.92,0-2.18H25.8L25.91,88a3.59,3.59,0,0,1,2.9-1.48,2.25,2.25,0,0,1,2.42,1.58,3.27,3.27,0,0,1,3-1.58c1.93,0,2.64,1.34,2.64,3.34v5.44H35.52V90.77c0-1.94-.08-3.17-1.54-3.17a2.66,2.66,0,0,0-2.42,1.94v5.71H30.25V90.5c0-1.75-.3-2.9-1.6-2.9A2.81,2.81,0,0,0,26,89.39v5.86Z" transform="translate(-1 -1)"/>
    <path d="M40.92,95.44a2.31,2.31,0,0,1-2.61-2.33c0-2.26,2.18-2.56,4.39-2.88l.86-.1v-1c0-1-.51-1.58-1.69-1.58a6.6,6.6,0,0,0-2.68.58l-.37-1a6.9,6.9,0,0,1,3-.65c1.7,0,3,.56,3,2.48v6.3H43.79l-.2-.94A3.48,3.48,0,0,1,40.92,95.44Zm2.64-2.28V91l-.78.12c-2.44.32-3.16.7-3.16,1.9a1.27,1.27,0,0,0,1.43,1.36A3.45,3.45,0,0,0,43.56,93.16Z" transform="translate(-1 -1)"/>
    <path d="M51.64,95.25h-1.3V83.57h1.51l4.35,9,4.32-9H62V95.25H60.67V86.07L57,93.83H55.4L51.64,86Z" transform="translate(-1 -1)"/>
    <path d="M66.39,95.44a2.31,2.31,0,0,1-2.61-2.33c0-2.26,2.18-2.56,4.39-2.88l.86-.1v-1c0-1-.51-1.58-1.69-1.58a6.6,6.6,0,0,0-2.68.58l-.36-1a6.83,6.83,0,0,1,3-.65c1.69,0,3,.56,3,2.48v6.3H69.26l-.19-.94A3.52,3.52,0,0,1,66.39,95.44ZM69,93.16V91l-.78.12c-2.43.32-3.15.7-3.15,1.9a1.26,1.26,0,0,0,1.42,1.36A3.45,3.45,0,0,0,69,93.16Z" transform="translate(-1 -1)"/>
    <path d="M72.23,95.25V88.64c0-.67,0-1.31,0-2h1.1l.1,1.49a2.67,2.67,0,0,1,2.51-1.49h.24l.1,1.2h-.33a2.23,2.23,0,0,0-2.4,2.36v5Z" transform="translate(-1 -1)"/>
    <path d="M83.05,93a2.52,2.52,0,0,1-2.83,2.49,5.38,5.38,0,0,1-3-.8l.34-1a4.78,4.78,0,0,0,2.43.72h.13A1.49,1.49,0,0,0,81.82,93V92.9c0-.54-.34-1.06-1.3-1.33l-1.14-.32c-1.71-.48-2.2-1.33-2.22-2.37,0-1.2.94-2.4,2.86-2.41a5.54,5.54,0,0,1,2.6.56l-.31.94a5.8,5.8,0,0,0-2.19-.46c-.94,0-1.65.49-1.65,1.37,0,.53.31,1,1.23,1.19l1.19.32a2.43,2.43,0,0,1,2.16,2.53Z" transform="translate(-1 -1)"/>
    <path d="M85.9,95.25H84.58V83.6l1.32-.14v4.38a3.76,3.76,0,0,1,3-1.37c1.8,0,2.61,1.34,2.61,3.6v5.18H90.25V90.43c0-1.93-.27-2.84-1.73-2.84a2.8,2.8,0,0,0-2.62,1.82Z" transform="translate(-1 -1)"/>
    <path d="M96.42,90.07h4v1.12h-4Z" transform="translate(-1 -1)"/>
    <path d="M111.8,89.83H107v5.42h-1.37V83.57h6.46l-.11,1.2h-5v3.94h4.82Z" transform="translate(-1 -1)"/>
    <path d="M113.42,95.25V88.64c0-.67,0-1.31,0-2h1.1l.1,1.49a2.68,2.68,0,0,1,2.51-1.49h.24l.1,1.2h-.32a2.23,2.23,0,0,0-2.4,2.36v5Z" transform="translate(-1 -1)"/>
    <path d="M122.1,95.44c-2.45,0-3.93-1.74-3.93-4.49,0-2.56,1.53-4.42,3.77-4.48s3.46,1.61,3.46,4.14c0,.13,0,.45,0,.59h-5.88c0,1.94,1.14,3.12,2.64,3.12a4.69,4.69,0,0,0,2.72-.86l.4,1A4.79,4.79,0,0,1,122.1,95.44Zm-2.54-5.15h4.58c0-1.82-.92-2.75-2.2-2.75S119.7,88.61,119.56,90.29Z" transform="translate(-1 -1)"/>
    <path d="M130.57,95.44c-2.45,0-3.94-1.74-3.94-4.49,0-2.56,1.54-4.42,3.78-4.48s3.46,1.61,3.46,4.14c0,.13,0,.45,0,.59H128c0,1.94,1.14,3.12,2.65,3.12a4.71,4.71,0,0,0,2.72-.86l.4,1A4.82,4.82,0,0,1,130.57,95.44ZM128,90.29h4.58c0-1.82-.91-2.75-2.19-2.75S128.17,88.61,128,90.29Z" transform="translate(-1 -1)"/>
    <path d="M136.92,91.89c0,1.87.05,2.45.94,2.45.2,0,.31,0,.71,0l.08,1a5.13,5.13,0,0,1-.88.09c-2.12,0-2.16-1-2.16-3.82v-8l1.31-.14Z" transform="translate(-1 -1)"/>
    <path d="M142.06,95.44a2.31,2.31,0,0,1-2.61-2.33c0-2.26,2.17-2.56,4.38-2.88l.87-.1v-1c0-1-.52-1.58-1.7-1.58a6.55,6.55,0,0,0-2.67.58l-.37-1a6.83,6.83,0,0,1,3-.65c1.69,0,3,.56,3,2.48v6.3h-1.07l-.19-.94A3.49,3.49,0,0,1,142.06,95.44Zm2.64-2.28V91l-.79.12c-2.43.32-3.15.7-3.15,1.9a1.26,1.26,0,0,0,1.42,1.36A3.47,3.47,0,0,0,144.7,93.16Z" transform="translate(-1 -1)"/>
    <path d="M154.81,90.11v5.14H153.5V91c0-2.23-.1-3.36-1.68-3.36a2.84,2.84,0,0,0-2.68,1.8v5.86h-1.31v-6.5l0-2.08h1.14l.11,1.27a3.86,3.86,0,0,1,3-1.47C154,86.47,154.81,87.71,154.81,90.11Z" transform="translate(-1 -1)"/>
    <path d="M162.66,94.66a3.47,3.47,0,0,1-2.32.78c-2.67,0-4.13-2.09-4.13-4.48s1.56-4.49,4.12-4.49a3.37,3.37,0,0,1,2.33.75l-.33.93a3.58,3.58,0,0,0-2-.6c-1.57,0-2.77,1.46-2.77,3.44s1.15,3.38,2.87,3.38a3.39,3.39,0,0,0,1.93-.64Z" transform="translate(-1 -1)"/>
    <path d="M167.59,95.44c-2.45,0-3.94-1.74-3.94-4.49,0-2.56,1.54-4.42,3.78-4.48s3.46,1.61,3.46,4.14c0,.13,0,.45,0,.59H165c0,1.94,1.13,3.12,2.64,3.12a4.69,4.69,0,0,0,2.72-.86l.4,1A4.79,4.79,0,0,1,167.59,95.44Zm-2.54-5.15h4.57c0-1.82-.91-2.75-2.19-2.75S165.19,88.61,165.05,90.29Z" transform="translate(-1 -1)"/>
  </g>
</svg>