<?xml version="1.0" encoding="utf-8"?>
<!-- Generator: Adobe Illustrator 24.1.0, SVG Export Plug-In . SVG Version: 6.00 Build 0)  -->
<svg version="1.1" id="Layer_1" xmlns="http://www.w3.org/2000/svg" xmlns:xlink="http://www.w3.org/1999/xlink" x="0px" y="0px"
	 viewBox="0 0 1000 618.2" style="enable-background:new 0 0 1000 618.2;" xml:space="preserve">
<style type="text/css">
	.st0{fill:#C31FAD;}
	.st1{fill:#FFFFFF;}
	.st2{opacity:0.12;}
	.st3{opacity:0.26;}
</style>
<g id="Layer_2_1_">
	<g id="Layer_1-2">
		<g id="Research">
			<rect y="123.2" class="st0" width="175" height="50"/>
			<path class="st1" d="M56.4,147c0.6,0.7,1,1.5,1.4,2.3l2,4.1h-3.1l-1.5-3.4c-0.4-0.8-1.2-2.4-1.2-2.4c-0.4,0-2.9,0-2.9,0v5.8h-2.9
				v-14.1h5.4c3.3,0,5.4,0.7,5.4,4C59.1,144.9,58,146.5,56.4,147z M53.7,141.4H51v4.1h2.6c1.8,0,2.6-0.6,2.6-2.2
				C56.2,142,55.4,141.4,53.7,141.4L53.7,141.4z"/>
			<path class="st1" d="M63,148.7c-0.1,1.4,0.9,2.7,2.4,2.8c0.2,0,0.4,0,0.5,0c1.1,0,2.1-0.3,3-0.9l0.8,1.7
				c-1.1,0.8-2.5,1.3-3.8,1.2c-3.6,0-5.5-2.1-5.5-5.5c0-3.1,1.9-5.5,5.1-5.5s4.6,2.5,4.6,5.3l0,0c0,0.3,0,0.5,0,0.8l0,0L63,148.7z
				 M67.5,147.3v-0.1c0-1.7-0.7-2.5-2.1-2.5c-0.9,0-2.2,0.5-2.4,2.6L67.5,147.3z"/>
			<path class="st1" d="M78,145.2c-0.9-0.4-1.8-0.6-2.8-0.6c-1.1,0-1.6,0.3-1.6,0.9s0.3,0.9,1.2,1.2l1.6,0.6c1.4,0.3,2.5,1.5,2.6,3
				c0.1,1.8-1.3,3.3-3.1,3.4c-0.1,0-0.3,0-0.4,0c-1.5,0.1-3-0.2-4.4-1l0.5-1.8c1.1,0.6,2.3,0.9,3.5,0.9c0.8,0,1.4-0.3,1.4-1.1
				c0-0.6-0.2-0.8-1-1.1l-1.6-0.6c-1.5-0.6-2.7-1.3-2.7-3c0-2.2,1.6-3.2,3.8-3.2c1.2-0.1,2.4,0.2,3.5,0.8L78,145.2z"/>
			<path class="st1" d="M82.7,148.7c-0.1,1.4,0.9,2.7,2.4,2.8c0.2,0,0.4,0,0.5,0c1.1,0,2.1-0.3,3-0.9l0.8,1.7
				c-1.1,0.8-2.5,1.3-3.8,1.2c-3.6,0-5.5-2.1-5.5-5.5c0-3.1,1.9-5.5,5.1-5.5s4.6,2.5,4.6,5.3l0,0c0,0.3,0,0.5,0,0.8l0,0L82.7,148.7z
				 M87.2,147.3v-0.1c0-1.7-0.7-2.5-2.1-2.5c-0.9,0-2.2,0.5-2.4,2.6L87.2,147.3z"/>
			<path class="st1" d="M94.1,153.6c-1.9,0-3.3-1.1-3.3-3c0-2.6,1.8-3.1,5.3-3.6l0.7-0.1v-0.5c0-1.2-0.1-1.7-1.5-1.8h-0.1
				c-1.1,0.1-2.2,0.3-3.2,0.7l-0.5-2c1.3-0.5,2.6-0.8,4-0.8h0.2c2.4,0,4,1.1,4,3.4v7.4h-2.2l-0.3-1.1
				C96.4,153.1,95.3,153.5,94.1,153.6z M96.9,150.9v-2.5l-0.7,0.1c-1.5,0.2-2.8,0.5-2.8,1.9c-0.1,0.6,0.4,1.2,1,1.3
				c0.1,0,0.2,0,0.2,0C95.4,151.8,96.2,151.5,96.9,150.9z"/>
			<path class="st1" d="M107.3,143l0.1,2.1h-0.7c-2,0-2.3,1-2.3,2.6v5.7h-2.8V143h2.6l0.2,1.4c0.5-0.9,1.6-1.5,2.6-1.4H107.3z"/>
			<path class="st1" d="M115.6,150.8l0.5,1.9c-0.9,0.6-1.9,0.9-3,0.9l0,0c-3,0-5.3-1.8-5.3-5.6c-0.2-2.8,1.9-5.1,4.6-5.3
				c0.2,0,0.3,0,0.5,0h0.1c1.1,0,2.2,0.3,3.1,0.9l-0.4,1.8c-0.7-0.5-1.5-0.7-2.4-0.7c-1.5,0-2.8,1-2.8,3.4s1.1,3.5,2.8,3.5
				C114.1,151.6,114.9,151.3,115.6,150.8z"/>
			<path class="st1" d="M117.3,153.4v-14.6h2.8v5.4c0.9-0.9,2.1-1.5,3.3-1.5c2,0,3.7,1.2,3.7,4.5v6.3h-2.8v-6.2
				c0-1.5-0.3-2.5-1.6-2.5c-1.1,0.1-2.1,0.8-2.7,1.8v7L117.3,153.4z"/>
		</g>
		<g id="Analysis">
			<rect x="274.7" y="123.2" class="st0" width="175" height="50"/>
			<path class="st1" d="M333.5,149h-4.2l-1.5,4.3h-2.9l0.4-1.2l4.7-12.9h2.7l4.6,12.9l0.4,1.2H335L333.5,149z M332.8,147.2l-1.4-4.8
				l-1.5,4.8H332.8z"/>
			<path class="st1" d="M344,144.6c-1.1,0.1-2,0.7-2.5,1.7v7.1h-2.8V143h2.3l0.2,1.4c0.9-1.1,2.3-1.8,3.7-1.8c2.5,0,3.6,1.9,3.6,4.5
				v6.3h-2.8v-6.1C345.7,145.9,345.6,144.6,344,144.6z"/>
			<path class="st1" d="M353.3,153.6c-1.9,0-3.3-1.1-3.3-3c0-2.6,1.8-3.1,5.3-3.6l0.7-0.1v-0.5c0-1.2-0.1-1.7-1.5-1.8h-0.1
				c-1.1,0.1-2.2,0.3-3.2,0.7l-0.5-2c1.3-0.5,2.6-0.8,4-0.8h0.2c2.4,0,4,1.1,4,3.4v7.4h-2.1l-0.3-1.1
				C355.6,153.1,354.5,153.6,353.3,153.6z M356,150.9v-2.5l-0.7,0.1c-1.5,0.2-2.8,0.5-2.8,1.9c-0.1,0.6,0.4,1.2,1,1.3
				c0.1,0,0.2,0,0.2,0C354.6,151.8,355.4,151.5,356,150.9L356,150.9z"/>
			<path class="st1" d="M363.7,149.3c0,1.6,0.1,2.1,1.6,2.1c0.2,0,0.4,0,0.6,0l0.1,2c-0.5,0.1-1,0.1-1.4,0.1c-3.1,0-3.6-1.9-3.6-4.6
				v-10l2.8-0.2L363.7,149.3z"/>
			<path class="st1" d="M370.2,153l-4.2-10h2.8l2.7,6.9l2.4-6.9h2.9l-4.3,11.1c-1,2.7-2.2,3.3-4.4,3.3h-1.3l-0.3-2h0.7
				C369,155.4,369.5,155.5,370.2,153z"/>
			<path class="st1" d="M384.2,145.2c-0.9-0.4-1.8-0.6-2.8-0.6c-1.1,0-1.6,0.3-1.6,0.9s0.3,0.9,1.2,1.2l1.6,0.6
				c1.4,0.3,2.5,1.5,2.6,3c0.1,1.8-1.3,3.3-3.1,3.4c-0.1,0-0.3,0-0.4,0c-1.5,0.1-3-0.2-4.4-1l0.5-1.8c1.1,0.6,2.3,0.9,3.5,0.9
				c0.8,0,1.4-0.3,1.4-1.1c0-0.6-0.2-0.8-1-1.1l-1.6-0.6c-1.5-0.6-2.7-1.3-2.7-3c0-2.2,1.6-3.2,3.8-3.2c1.2-0.1,2.4,0.2,3.5,0.8
				L384.2,145.2z"/>
			<path class="st1" d="M389.6,141.2h-2.8v-2.3h2.8V141.2z M389.6,153.4h-2.8V143h2.8V153.4z"/>
			<path class="st1" d="M398.2,145.2c-0.9-0.4-1.8-0.6-2.8-0.6c-1.1,0-1.6,0.3-1.6,0.9s0.3,0.9,1.2,1.2l1.6,0.6
				c1.4,0.3,2.5,1.5,2.6,3c0.1,1.8-1.3,3.3-3.1,3.4c-0.1,0-0.3,0-0.4,0c-1.5,0.1-3-0.2-4.4-1l0.5-1.8c1.1,0.6,2.3,0.9,3.5,0.9
				c0.8,0,1.4-0.3,1.4-1.1c0-0.6-0.2-0.8-1-1.1l-1.6-0.6c-1.5-0.6-2.7-1.3-2.7-3c0-2.2,1.6-3.2,3.8-3.2c1.2-0.1,2.4,0.2,3.5,0.8
				L398.2,145.2z"/>
		</g>
		<g id="Validate">
			<rect x="557.1" class="st0" width="175" height="50"/>
			<path class="st1" d="M613.8,30.2l-5.4-14.1h2.9l3.8,10.6l3.6-10.6h2.8l-5.2,14.1L613.8,30.2z"/>
			<path class="st1" d="M625.3,30.4c-1.9,0-3.3-1.1-3.3-3c0-2.6,1.8-3.1,5.3-3.6l0.7-0.1v-0.5c0-1.2-0.1-1.7-1.5-1.8h-0.1
				c-1.1,0.1-2.2,0.3-3.2,0.7l-0.5-2c1.3-0.5,2.6-0.8,4-0.8h0.2c2.4,0,4,1.1,4,3.4v7.4h-2.1l-0.3-1.1
				C627.6,29.9,626.5,30.4,625.3,30.4z M628.1,27.8v-2.5l-0.7,0.1c-1.5,0.2-2.8,0.5-2.8,1.9c-0.1,0.6,0.4,1.2,1,1.3
				c0.1,0,0.2,0,0.2,0C626.6,28.6,627.4,28.3,628.1,27.8z"/>
			<path class="st1" d="M635.7,26.1c0,1.6,0.1,2.1,1.6,2.1c0.2,0,0.4,0,0.6,0l0.1,2c-0.5,0.1-1,0.1-1.4,0.1c-3.1,0-3.6-1.9-3.6-4.6
				v-10l2.8-0.2V26.1z"/>
			<path class="st1" d="M642.2,18h-2.8v-2.2h2.8V18z M642.2,30.2h-2.8V19.8h2.8V30.2z"/>
			<path class="st1" d="M651.7,28.7c-0.6,1.1-1.8,1.7-3,1.7h-0.1c-3-0.1-4.6-2.4-4.6-5.5c0-2.9,1.7-5.4,4.7-5.4
				c1.2-0.1,2.4,0.5,3,1.6v-5.4h2.8v14.6h-2.7V28.7z M651.7,24.9c0-2.6-1.3-3.5-2.5-3.5s-2.6,0.7-2.6,3.5s1.3,3.4,2.6,3.4
				S651.8,27.6,651.7,24.9L651.7,24.9z"/>
			<path class="st1" d="M659.4,30.4c-1.9,0-3.3-1.1-3.3-3c0-2.6,1.8-3.1,5.3-3.6l0.7-0.1v-0.5c0-1.2-0.1-1.7-1.5-1.8h-0.1
				c-1.1,0.1-2.2,0.3-3.2,0.7l-0.5-2c1.3-0.5,2.6-0.8,4-0.8h0.3c2.4,0,4,1.1,4,3.4v7.4h-2.2l-0.3-1.1
				C661.7,29.9,660.6,30.4,659.4,30.4z M662.1,27.8v-2.5l-0.7,0.1c-1.5,0.2-2.8,0.5-2.8,1.9c-0.1,0.6,0.4,1.2,1,1.3
				c0.1,0,0.2,0,0.2,0C660.7,28.6,661.5,28.3,662.1,27.8z"/>
			<path class="st1" d="M670.2,25.9c0,1.8,0.1,2.3,1.6,2.3l0.9-0.1l0.2,2c0,0-1,0.1-1.6,0.1c-3.2,0-3.9-1.5-3.9-4.6v-4.2h-1.8
				l0.2-1.7h1.6l0.7-3.8h2.1v3.8h2.6v1.7h-2.6V25.9z"/>
			<path class="st1" d="M676.8,25.5c-0.1,1.4,0.9,2.7,2.4,2.8c0.2,0,0.4,0,0.5,0c1.1,0,2.1-0.3,3-0.9l0.8,1.7
				c-1.1,0.8-2.5,1.3-3.8,1.2c-3.6,0-5.5-2.1-5.5-5.5c0-3.1,1.9-5.5,5.1-5.5s4.6,2.5,4.6,5.3l0,0c0,0.3,0,0.5,0,0.8l0,0L676.8,25.5z
				 M681.2,24.1L681.2,24.1c0-1.8-0.7-2.6-2.1-2.6c-0.9,0-2.2,0.5-2.4,2.6L681.2,24.1z"/>
		</g>
		<g id="Design">
			<rect x="557.1" y="207.5" class="st0" width="175" height="50"/>
			<path class="st1" d="M618.8,237.7h-4.7v-14.1h3.9c5.3,0,8.9,1.9,8.9,7.1C626.8,235.3,623.6,237.7,618.8,237.7z M618.2,225.8h-1.1
				v9.7h2c3.2,0,4.9-1.7,4.9-4.8C624,227,622,225.8,618.2,225.8L618.2,225.8z"/>
			<path class="st1" d="M630.9,233c-0.1,1.4,0.9,2.7,2.4,2.8c0.2,0,0.4,0,0.5,0c1.1,0,2.1-0.3,3-0.9l0.8,1.7
				c-1.1,0.8-2.5,1.3-3.8,1.2c-3.6,0-5.5-2.1-5.5-5.5c0-3.1,1.9-5.5,5.1-5.5s4.6,2.5,4.6,5.3l0,0c0,0.3,0,0.5,0,0.8l0,0L630.9,233z
				 M635.4,231.5v-0.1c0-1.7-0.7-2.5-2.1-2.5c-0.9,0-2.2,0.5-2.4,2.6L635.4,231.5z"/>
			<path class="st1" d="M645.9,229.5c-0.9-0.4-1.8-0.6-2.8-0.6c-1.1,0-1.6,0.3-1.6,0.9s0.3,0.9,1.2,1.2l1.6,0.6
				c1.4,0.3,2.5,1.5,2.6,3c0.1,1.8-1.3,3.3-3.1,3.4c-0.1,0-0.3,0-0.4,0c-1.5,0.1-3-0.2-4.4-1l0.5-1.8c1.1,0.6,2.3,0.9,3.5,0.9
				c0.8,0,1.4-0.3,1.4-1.1c0-0.6-0.2-0.8-1-1.1l-1.6-0.6c-1.5-0.6-2.7-1.3-2.7-3c0-2.2,1.6-3.2,3.8-3.2c1.2-0.1,2.4,0.2,3.5,0.8
				L645.9,229.5z"/>
			<path class="st1" d="M651.3,225.5h-2.8v-2.3h2.8V225.5z M651.3,237.7h-2.8v-10.4h2.8V237.7z"/>
			<path class="st1" d="M655.9,242.4l-0.2-2.1h1.1c3,0,4.1,0,4.1-3.2v-0.8c-0.7,1-1.8,1.5-3,1.4c-2.7,0-4.8-2-4.8-5.4
				c0-3.6,2.4-5.4,4.7-5.4l0,0c1.2-0.1,2.4,0.4,3.1,1.4v-1h2.8v9.7c0,3.8-1.4,5.4-6.4,5.4L655.9,242.4z M658.4,235.7
				c1.5,0,2.6-1.3,2.6-3.3s-1.1-3.4-2.6-3.4h-0.1c-1.7,0-2.6,1.3-2.6,3.4S656.8,235.7,658.4,235.7L658.4,235.7z"/>
			<path class="st1" d="M670.9,228.9c-1.1,0.1-2,0.7-2.5,1.7v7.1h-2.8v-10.4h2.3l0.2,1.4c0.9-1.1,2.3-1.8,3.7-1.8
				c2.5,0,3.6,1.9,3.6,4.5v6.3h-2.8v-6.1C672.6,230.2,672.5,228.9,670.9,228.9z"/>
		</g>
		<g id="Prototype">
			<rect x="825" y="123.2" class="st0" width="175" height="50"/>
			<path class="st1" d="M868.8,153.4v-14.1h4.7c3.4,0,5.6,1.3,5.6,4.4c0,2.5-1.2,4.6-5.4,4.6c-0.6,0-1.3,0-2-0.1v5.2L868.8,153.4z
				 M876.3,143.8L876.3,143.8c0-1.5-1-2.4-2.8-2.4h-1.8v4.8c0.2,0,1,0,1.6,0C875.8,146.2,876.3,145,876.3,143.8z"/>
			<path class="st1" d="M886,143l0.1,2.1h-0.7c-2,0-2.3,1-2.3,2.6v5.7h-2.8V143h2.6l0.2,1.4c0.5-0.9,1.6-1.5,2.6-1.4H886z"/>
			<path class="st1" d="M896.7,148.1c0,3.2-1.7,5.5-5.1,5.5s-5.1-2.3-5.1-5.5s1.7-5.5,5.1-5.5S896.7,144.9,896.7,148.1z
				 M894.1,148.1c0-2.3-1-3.5-2.5-3.5s-2.5,1.2-2.5,3.5s1,3.4,2.5,3.4S894.1,150.4,894.1,148.1z"/>
			<path class="st1" d="M901.6,149.1c0,1.8,0.1,2.3,1.6,2.3l0.9-0.1l0.2,2c0,0-1,0.1-1.6,0.1c-3.2,0-3.9-1.5-3.9-4.6v-4.3h-1.8
				l0.2-1.7h1.6l0.7-3.8h2.1v3.8h2.6v1.7h-2.6V149.1z"/>
			<path class="st1" d="M915.8,148.1c0,3.2-1.7,5.5-5.1,5.5s-5.1-2.3-5.1-5.5s1.7-5.5,5.1-5.5S915.8,144.9,915.8,148.1z
				 M913.1,148.1c0-2.3-1-3.5-2.5-3.5s-2.5,1.2-2.5,3.5s1,3.4,2.5,3.4S913.1,150.4,913.1,148.1z"/>
			<path class="st1" d="M920.7,149.1c0,1.8,0.1,2.3,1.6,2.3l0.9-0.1l0.2,2c0,0-1,0.1-1.6,0.1c-3.2,0-3.9-1.5-3.9-4.6v-4.3h-1.8
				l0.2-1.7h1.6l0.7-3.8h2.1v3.8h2.6v1.7h-2.6V149.1z"/>
			<path class="st1" d="M927.9,153l-4.2-10h2.8l2.7,6.9l2.4-6.9h2.9l-4.3,11.1c-1,2.7-2.2,3.3-4.4,3.3h-1.3l-0.3-2h0.7
				C926.8,155.4,927.2,155.5,927.9,153z"/>
			<path class="st1" d="M938.2,144.4c0.5-1.2,1.8-1.9,3.1-1.8c3.2,0,4.7,2.7,4.7,5.4c0,3-1.6,5.5-4.6,5.5h-0.1
				c-1.2,0.1-2.4-0.5-3.1-1.5v5l-2.8,0.3V143h2.5L938.2,144.4z M943.3,148.1c0-2.8-1.3-3.5-2.6-3.5s-2.5,0.8-2.5,3.5
				s1.3,3.4,2.6,3.4S943.3,150.7,943.3,148.1L943.3,148.1z"/>
			<path class="st1" d="M949.9,148.7c-0.1,1.4,0.9,2.7,2.4,2.8c0.2,0,0.4,0,0.5,0c1.1,0,2.1-0.3,3-0.9l0.8,1.7
				c-1.1,0.8-2.5,1.3-3.8,1.2c-3.6,0-5.5-2.1-5.5-5.5c0-3.1,1.9-5.5,5.1-5.5s4.6,2.5,4.6,5.3l0,0c0,0.3,0,0.5,0,0.8l0,0L949.9,148.7
				z M954.4,147.3v-0.1c0-1.7-0.7-2.5-2.1-2.5c-0.9,0-2.2,0.5-2.4,2.6L954.4,147.3z"/>
		</g>
		<g id="Wireframes">
			<rect x="825" y="263.1" class="st0" width="175" height="50"/>
			<path class="st1" d="M865.9,289.5l3.5-10.3h2.4l3.1,10.4l3.1-10.4h2.9l-4.5,14.1h-2.7l-3-10.4l-3.5,10.4h-2.7l-4.1-14.1h2.8
				L865.9,289.5z"/>
			<path class="st1" d="M884.8,281.2H882v-2.3h2.8L884.8,281.2z M884.8,293.3H882V283h2.8L884.8,293.3z"/>
			<path class="st1" d="M892.6,283l0.1,2.1H892c-2,0-2.3,1-2.3,2.6v5.7h-2.8V283h2.6l0.2,1.4c0.5-0.9,1.6-1.5,2.6-1.4H892.6z"/>
			<path class="st1" d="M895.8,288.7c-0.1,1.4,0.9,2.7,2.4,2.8c0.2,0,0.4,0,0.5,0c1.1,0,2.1-0.3,3-0.9l0.8,1.7
				c-1.1,0.8-2.5,1.3-3.8,1.2c-3.6,0-5.5-2.1-5.5-5.5c0-3.1,1.9-5.5,5.1-5.5s4.6,2.5,4.6,5.3l0,0c0,0.3,0,0.5,0,0.8l0,0L895.8,288.7
				z M900.3,287.2v-0.1c0-1.7-0.7-2.5-2.1-2.5c-0.9,0-2.2,0.5-2.4,2.6H900.3z"/>
			<path class="st1" d="M909,278.2h0.9l0.2,2.1h-0.9c-1.2,0-1.5,0.5-1.5,1.8v0.9h2.3v1.6h-2.3v8.7H905v-8.7h-1.7V283h1.7v-0.3
				C905,279.9,905.3,278.2,909,278.2z"/>
			<path class="st1" d="M916.7,283l0.1,2.1h-0.7c-2,0-2.3,1-2.3,2.6v5.7h-2.8V283h2.6l0.2,1.4c0.5-0.9,1.6-1.5,2.6-1.4H916.7z"/>
			<path class="st1" d="M920.5,293.5c-1.9,0-3.3-1.1-3.3-3c0-2.6,1.8-3.1,5.3-3.6l0.7-0.1v-0.5c0-1.2-0.1-1.7-1.5-1.8h-0.1
				c-1.1,0.1-2.2,0.3-3.2,0.7l-0.5-2c1.3-0.5,2.6-0.8,4-0.8h0.2c2.4,0,4,1.1,4,3.4v7.4H924l-0.3-1.1
				C922.8,293,921.7,293.5,920.5,293.5z M923.3,290.9v-2.5l-0.7,0.1c-1.5,0.2-2.8,0.5-2.8,1.9c-0.1,0.6,0.4,1.2,1,1.3
				c0.1,0,0.2,0,0.2,0C921.8,291.7,922.6,291.4,923.3,290.9L923.3,290.9z"/>
			<path class="st1" d="M930.8,293.3H928V283h2.3l0.2,1.4c0.9-1.1,2.1-1.7,3.5-1.8h0.1c1.2-0.1,2.3,0.6,2.7,1.8
				c0.9-1.1,2.2-1.8,3.6-1.8h0.1c2.6,0,3.4,1.9,3.4,4.4v6.4h-2.7v-5.8c0-2-0.2-3-1.4-3h-0.1c-1.1,0-2,0.7-2.4,1.7v7.1h-2.8v-6
				c0-1.6-0.2-2.8-1.6-2.8c-1,0.1-1.9,0.7-2.4,1.6V293.3z"/>
			<path class="st1" d="M948.3,288.7c-0.1,1.4,0.9,2.7,2.4,2.8c0.2,0,0.4,0,0.5,0c1.1,0,2.1-0.3,3-0.9l0.8,1.7
				c-1.1,0.8-2.5,1.3-3.8,1.2c-3.6,0-5.5-2.1-5.5-5.5c0-3.1,1.9-5.5,5.1-5.5s4.6,2.5,4.6,5.3l0,0c0,0.3,0,0.5,0,0.8l0,0L948.3,288.7
				z M952.7,287.2v-0.1c0-1.7-0.7-2.5-2.1-2.5c-0.9,0-2.2,0.5-2.4,2.6H952.7z"/>
			<path class="st1" d="M963.3,285.2c-0.9-0.4-1.8-0.6-2.8-0.6c-1.1,0-1.6,0.3-1.6,0.9s0.3,0.9,1.2,1.2l1.6,0.6
				c1.4,0.3,2.5,1.5,2.6,3c0.1,1.8-1.3,3.3-3.1,3.4c-0.1,0-0.3,0-0.4,0c-1.5,0.1-3-0.2-4.4-1l0.5-1.8c1.1,0.6,2.3,0.9,3.5,0.9
				c0.8,0,1.4-0.3,1.4-1.1c0-0.6-0.2-0.8-1-1.1l-1.6-0.6c-1.5-0.6-2.7-1.3-2.7-3c0-2.2,1.6-3.2,3.8-3.2c1.2-0.1,2.4,0.2,3.5,0.8
				L963.3,285.2z"/>
		</g>
		<g id="Build">
			<rect x="825" y="408.9" class="st2" width="175" height="50"/>
			<path class="st3" d="M895.2,439.1h-5.4V425h4.8c3.2,0,5.7,0.7,5.7,3.6c0,1.2-0.7,2.3-1.8,2.9c1.4,0.5,2.4,2,2.3,3.5
				C900.8,437.9,898.5,439.1,895.2,439.1z M894.1,427h-1.4v3.6h2.2c1.6,0,2.6-0.4,2.6-1.6C897.6,427.1,896.3,427,894.1,427z
				 M895,432.6h-2.2v4.6h2.1c2,0,3.1-0.5,3.1-2.3S897,432.5,895,432.6L895,432.6z"/>
			<path class="st3" d="M902.3,428.7h2.8v6.6c0,1.5,0.7,2,2,2c0.9,0.2,1.8-0.5,2-1.4c0-0.2,0-0.4,0-0.6v-6.6h2.8v6.6
				c0,2.7-1.9,4-4.8,4s-4.7-1.2-4.7-4L902.3,428.7z"/>
			<path class="st3" d="M916.7,426.9h-2.8v-2.3h2.8V426.9z M916.7,439.1H914v-10.4h2.8V439.1z"/>
			<path class="st3" d="M921.8,435c0,1.6,0.1,2.1,1.6,2.1c0.2,0,0.4,0,0.6,0l0.1,2c-0.5,0.1-1,0.1-1.4,0.1c-3.1,0-3.6-1.9-3.6-4.6
				v-10l2.8-0.2V435z"/>
			<path class="st3" d="M932.6,437.6c-0.6,1.1-1.8,1.7-3,1.7h-0.1c-3-0.1-4.6-2.4-4.6-5.5c0-2.9,1.7-5.4,4.7-5.4
				c1.2-0.1,2.4,0.5,3,1.6v-5.4h2.8v14.6h-2.7V437.6z M932.6,433.8c0-2.6-1.3-3.5-2.5-3.5s-2.6,0.7-2.6,3.5s1.3,3.4,2.6,3.4
				S932.6,436.5,932.6,433.8L932.6,433.8z"/>
		</g>
		<g id="Test">
			<rect x="825" y="568.2" class="st2" width="175" height="50"/>
			<path class="st3" d="M900.5,598.4h-2.9v-12h-4.1v-2.2h11.2v2.2h-4.1L900.5,598.4z"/>
			<path class="st3" d="M907.7,593.7c-0.1,1.4,0.9,2.7,2.4,2.8c0.2,0,0.4,0,0.5,0c1.1,0,2.1-0.3,3-0.9l0.8,1.7
				c-1.1,0.8-2.5,1.3-3.8,1.2c-3.6,0-5.5-2.1-5.5-5.5c0-3.1,1.9-5.5,5.1-5.5s4.6,2.5,4.6,5.3l0,0c0,0.3,0,0.5,0,0.8l0,0L907.7,593.7
				z M912.1,592.3L912.1,592.3c0-1.8-0.7-2.6-2.1-2.6c-0.9,0-2.2,0.5-2.4,2.6H912.1z"/>
			<path class="st3" d="M922.7,590.2c-0.9-0.4-1.8-0.6-2.8-0.6c-1.1,0-1.6,0.3-1.6,0.9s0.3,0.9,1.2,1.2l1.6,0.6
				c1.4,0.3,2.5,1.5,2.6,3c0.1,1.8-1.3,3.3-3.1,3.4c-0.1,0-0.3,0-0.4,0c-1.5,0.1-3-0.2-4.4-1l0.5-1.8c1.1,0.6,2.3,0.9,3.5,0.9
				c0.8,0,1.4-0.3,1.4-1.1c0-0.6-0.2-0.8-1-1.1l-1.6-0.6c-1.5-0.6-2.7-1.3-2.7-3c0-2.2,1.6-3.2,3.8-3.2c1.2-0.1,2.4,0.2,3.5,0.8
				L922.7,590.2z"/>
			<path class="st3" d="M928.3,594.1c0,1.8,0.1,2.3,1.6,2.3l0.9-0.1l0.2,2c0,0-1,0.1-1.6,0.1c-3.2,0-3.9-1.5-3.9-4.6v-4.3h-1.8
				l0.2-1.7h1.6l0.7-3.8h2.1v3.8h2.6v1.7h-2.6V594.1z"/>
		</g>
		<path d="M512.8,213.1l-17-17L493,199l17,17l-4.2,4.2h11.3v-11.3L512.8,213.1z"/>
		<path d="M785.9,202.4l-17,17l2.8,2.8l17-17l4.2,4.2v-11.3h-11.3L785.9,202.4z"/>
		<path d="M773.2,78.3l17,17l2.8-2.8l-17-17l4.2-4.2H769v11.3L773.2,78.3z"/>
		<path d="M647.1,156.3v-24h-4v24h-6l8,8l8-8H647.1z"/>
		<path d="M914.1,226.3v-24h-4v24h-6l8,8l8-8H914.1z"/>
		<path d="M914.1,372.3v-24h-4v24h-6l8,8l8-8H914.1z"/>
		<path d="M914.1,528.3v-24h-4v24h-6l8,8l8-8H914.1z"/>
		<path d="M233,148.2h-24v4h24v6l8-8l-8-8V148.2z"/>
	</g>
</g>
</svg>
